<svg xmlns="http://www.w3.org/2000/svg" width="648.56" height="423.05" viewBox="0 0 648.56 423.05">
  <defs>
    <style>
      .cls-1 {
        fill: #ebebeb;
      }

      .cls-10, .cls-2 {
        fill: #fff;
      }

      .cls-12, .cls-13, .cls-3 {
        fill: none;
      }

      .cls-10, .cls-3 {
        stroke: #ebebeb;
      }

      .cls-10, .cls-12, .cls-13, .cls-3 {
        stroke-miterlimit: 10;
      }

      .cls-4 {
        fill: #a6a6a6;
      }

      .cls-5 {
        fill: #ffc727;
      }

      .cls-6 {
        fill: #263238;
      }

      .cls-7 {
        fill: #dbdbdb;
      }

      .cls-8 {
        fill: #c7c7c7;
      }

      .cls-9 {
        fill: #455a64;
      }

      .cls-10 {
        stroke-width: 0.5px;
      }

      .cls-11 {
        fill: #020100;
      }

      .cls-11, .cls-14, .cls-18 {
        opacity: 0.1;
      }

      .cls-12, .cls-13 {
        stroke: #263238;
        stroke-width: 0.75px;
      }

      .cls-13 {
        stroke-dasharray: 4.01 5.01;
      }

      .cls-15 {
        fill: #37474f;
      }

      .cls-16 {
        fill: #774442;
      }

      .cls-17 {
        fill: #ff9cbd;
      }

      .cls-18 {
        fill: #050400;
      }
    </style>
  </defs>
  <title>Asset 1</title>
  <g id="Layer_2" data-name="Layer 2">
    <g id="Background_Complete" data-name="Background Complete">
      <g>
        <g>
          <path class="cls-1" d="M599.29,181.76a28.4,28.4,0,0,1-8.4,3.4,29,29,0,1,1,8.4-3.4Z"/>
          <g>
            <path class="cls-2" d="M593.2,153.71a8.82,8.82,0,1,1-8.71-8.92A8.82,8.82,0,0,1,593.2,153.71Z"/>
            <path class="cls-2" d="M599.34,178.12l-.05,3.64a28.4,28.4,0,0,1-8.4,3.4,28.81,28.81,0,0,1-22.08-3.77l0-3.63a15.25,15.25,0,0,1,30.49.36Z"/>
          </g>
        </g>
        <g>
          <path class="cls-1" d="M64,99.86a19,19,0,0,1-28.29-12A19,19,0,1,1,64,99.86Z"/>
          <g>
            <path class="cls-2" d="M60,81.49a5.78,5.78,0,1,1-5.71-5.85A5.78,5.78,0,0,1,60,81.49Z"/>
            <path class="cls-2" d="M64,97.48l0,2.38a19,19,0,0,1-20-.25l0-2.37a10,10,0,1,1,20,.24Z"/>
          </g>
        </g>
      </g>
      <g>
        <rect class="cls-3" x="84.7" y="15.2" width="125.64" height="85.64"/>
        <g>
          <path class="cls-4" d="M94.1,20.29a2.52,2.52,0,1,1-2.52-2.52A2.52,2.52,0,0,1,94.1,20.29Z"/>
          <path class="cls-1" d="M104.39,20.29a2.52,2.52,0,1,1-2.52-2.52A2.52,2.52,0,0,1,104.39,20.29Z"/>
          <path class="cls-5" d="M114.69,20.29a2.53,2.53,0,1,1-2.52-2.52A2.52,2.52,0,0,1,114.69,20.29Z"/>
        </g>
        <line class="cls-3" x1="84.7" y1="25.22" x2="210.34" y2="25.22"/>
      </g>
      <g>
        <g>
          <rect class="cls-1" x="34.85" y="146.06" width="66.59" height="42.23" transform="translate(-21.96 10.74) rotate(-7.77)"/>
          <g>
            <path class="cls-2" d="M98.28,141.76c-2.32,2.91-4.7,5.72-7,8.6s-4.75,5.64-7.15,8.44-5,5.82-7.52,8.71l-.22.27q-3.34,3.83-6.7,7.63l-.34.37-.41-.26-8.49-5.58a2.49,2.49,0,0,1-.3-.19q-4.8-3.15-9.59-6.38-4.56-3.08-9.13-6.22c-3-2.14-6.08-4.21-9.09-6.39,3.13,1.79,6.23,3.71,9.34,5.56s6.21,3.8,9.3,5.74q5.16,3.21,10.33,6.53h0l7.73,5c2-2.28,4.07-4.58,6.11-6.84l0,0c2.72-3,5.45-6.06,8.2-9.05q3.69-4,7.42-8C93.27,147,95.75,144.33,98.28,141.76Z"/>
            <path class="cls-2" d="M61.5,169.53a.5.5,0,0,0-.07.08l-.92,1c-1.47,1.63-3,3.2-4.53,4.73-1.88,1.89-3.82,3.72-5.77,5.54s-3.94,3.58-6,5.31-4.09,3.43-6.25,5c1.76-2,3.62-4,5.51-5.83s3.83-3.72,5.77-5.54,4-3.59,6-5.32c1.61-1.38,3.27-2.75,5-4.05l1.18-.9Z"/>
            <path class="cls-2" d="M103.65,182.28c-2.51-1-5-2.05-7.37-3.17s-4.81-2.31-7.19-3.51-4.73-2.48-7-3.8c-1.89-1.06-3.76-2.16-5.6-3.33l-1.17-.75a.47.47,0,0,1-.09-.06l.11,0,1.38.56c2,.8,3.94,1.67,5.88,2.57,2.42,1.12,4.8,2.31,7.18,3.52s4.72,2.47,7,3.79S101.41,180.8,103.65,182.28Z"/>
          </g>
        </g>
        <g>
          <rect class="cls-1" x="545.51" y="187.89" width="66.9" height="105.49" transform="translate(211.43 748.59) rotate(-76.68)"/>
          <g>
            <path class="cls-2" d="M638,220.23c-5.09,3-10.21,5.78-15.31,8.7s-10.24,5.64-15.38,8.41q-8,4.35-16.08,8.58l-.49.28q-7.11,3.74-14.25,7.46l-.7.35-.45-.62q-4.71-6.52-9.38-13.08c-.11-.13-.22-.29-.33-.45-3.54-4.94-7-9.89-10.54-14.9-3.33-4.76-6.65-9.58-10-14.39s-6.58-9.69-9.79-14.64c3.61,4.45,7.1,9,10.63,13.55s7,9.15,10.48,13.78Q562.24,231,568,238.8s0,0,0,0c2.87,3.89,5.74,7.81,8.61,11.72,4.3-2.22,8.62-4.45,12.93-6.62,0,0,0,0,0,0,5.76-2.93,11.51-5.85,17.28-8.71q7.75-3.85,15.53-7.6C627.6,225.13,632.77,222.59,638,220.23Z"/>
            <path class="cls-2" d="M567.79,240.32c-.06,0-.1.06-.15.08l-1.94,1q-4.63,2.34-9.38,4.4c-3.86,1.73-7.77,3.33-11.69,4.9s-7.87,3-11.86,4.44-8,2.75-12.11,3.88c3.76-2,7.6-3.77,11.46-5.48s7.78-3.32,11.69-4.9,7.89-3,11.88-4.45c3.18-1.12,6.4-2.2,9.65-3.15.76-.23,1.51-.44,2.27-.65Z"/>
            <path class="cls-2" d="M622.83,283.19c-3.16-2.85-6.16-5.85-9.08-8.89s-5.79-6.16-8.63-9.29-5.58-6.35-8.26-9.62c-2.19-2.65-4.33-5.34-6.38-8.12l-1.3-1.77s-.06-.1-.1-.14a.63.63,0,0,0,.13.11l1.74,1.62c2.48,2.31,4.86,4.71,7.21,7.14,2.94,3,5.79,6.16,8.61,9.3s5.58,6.35,8.26,9.62S620.36,279.72,622.83,283.19Z"/>
          </g>
        </g>
        <g>
          <rect class="cls-1" x="361.08" width="60.61" height="38.44"/>
          <g>
            <path class="cls-2" d="M421.68,0c-2.44,2.34-4.94,4.58-7.4,6.89s-5,4.51-7.49,6.73-5.23,4.64-7.85,6.93l-.24.22-7,6.06-.34.28-.34-.28-7-6.07-.25-.21q-3.94-3.43-7.86-6.94c-2.5-2.21-5-4.47-7.47-6.72s-5-4.55-7.41-6.89c2.6,2,5.16,4.11,7.73,6.17s5.14,4.18,7.69,6.32Q380.75,16,385,19.64v0c2.12,1.79,4.24,3.6,6.37,5.41,2.11-1.81,4.23-3.63,6.35-5.41,0,0,0,0,0,0q4.25-3.6,8.51-7.16,3.81-3.18,7.67-6.3C416.52,4.11,419.08,2,421.68,0Z"/>
            <path class="cls-2" d="M385.1,20.52s-.05.05-.08.06c-.32.28-.63.55-.95.81-1.52,1.29-3.08,2.52-4.66,3.71-1.93,1.47-3.91,2.88-5.89,4.29s-4,2.73-6,4-4.12,2.59-6.26,3.76c1.84-1.61,3.75-3.11,5.68-4.57s3.92-2.89,5.89-4.29,4-2.75,6-4.06c1.63-1.05,3.29-2.08,5-3,.39-.23.78-.45,1.19-.67Z"/>
            <path class="cls-2" d="M421.54,37.2c-2.14-1.17-4.22-2.45-6.25-3.76s-4.05-2.68-6.06-4-4-2.82-5.89-4.29c-1.57-1.19-3.13-2.41-4.64-3.7l-1-.82s-.05,0-.07-.06l.09.05,1.18.67c1.69,1,3.34,2,5,3C406,25.59,408,27,410,28.34s4,2.81,5.89,4.29S419.7,35.59,421.54,37.2Z"/>
          </g>
        </g>
      </g>
    </g>
    <g id="Shadow">
      <ellipse class="cls-1" cx="158.92" cy="410.37" rx="147.31" ry="12.68"/>
    </g>
    <g id="Floor">
      <polygon class="cls-6" points="0 317.81 81.07 317.56 162.14 317.47 324.28 317.31 486.42 317.47 567.49 317.56 648.56 317.81 567.49 318.05 486.42 318.14 324.28 318.3 162.14 318.14 81.07 318.05 0 317.81"/>
    </g>
    <g id="Device">
      <g>
        <rect class="cls-7" x="102.72" y="34.07" width="441.45" height="295.29"/>
        <rect class="cls-6" x="105.92" y="37.67" width="435.03" height="288.09"/>
        <g>
          <rect class="cls-8" x="45.22" y="351.51" width="556.44" height="20.27"/>
          <polygon class="cls-7" points="45.22 351.5 102.72 329.36 544.16 329.36 601.66 351.5 45.22 351.5"/>
          <polygon class="cls-6" points="107.85 343.65 144.95 329.36 501.93 329.36 539.03 343.65 107.85 343.65"/>
        </g>
        <g>
          <rect class="cls-2" x="130.51" y="59.56" width="385.86" height="244.32"/>
          <g>
            <rect class="cls-9" x="130.18" y="59.56" width="386.19" height="9.4"/>
            <g>
              <path class="cls-8" d="M137.66,64.26a2.34,2.34,0,1,1-2.34-2.33A2.33,2.33,0,0,1,137.66,64.26Z"/>
              <path class="cls-2" d="M147.18,64.26a2.34,2.34,0,1,1-2.34-2.33A2.33,2.33,0,0,1,147.18,64.26Z"/>
              <path class="cls-5" d="M156.7,64.26a2.34,2.34,0,1,1-2.33-2.33A2.33,2.33,0,0,1,156.7,64.26Z"/>
            </g>
          </g>
          <g>
            <rect class="cls-7" x="509.52" y="68.96" width="6.85" height="234.91"/>
            <path class="cls-4" d="M512.94,150.4h0a1.77,1.77,0,0,1-1.77-1.77V72.1a1.77,1.77,0,0,1,1.77-1.77h0a1.77,1.77,0,0,1,1.77,1.77v76.53A1.77,1.77,0,0,1,512.94,150.4Z"/>
          </g>
          <g>
            <g>
              <rect class="cls-2" x="241.71" y="83.74" width="207.99" height="7.91"/>
              <path class="cls-1" d="M449.78,91.73H241.63V83.66H449.78Z"/>
            </g>
            <rect class="cls-5" x="441.7" y="83.66" width="8.08" height="8.08"/>
            <g>
              <path class="cls-2" d="M448.25,89.91l-.73.55-1.36-1.78-.49-.66a1.12,1.12,0,0,0,.28-.16,1.25,1.25,0,0,0,.38-.48l.52.69Z"/>
              <path class="cls-2" d="M446.81,85.7a2,2,0,1,0-3.16,2.43,2,2,0,0,0,2.51.55,1.67,1.67,0,0,0,.28-.18,2.08,2.08,0,0,0,.41-.43A2,2,0,0,0,446.81,85.7ZM446,87.86a1.12,1.12,0,0,1-.28.16,1.17,1.17,0,0,1-1.39-.38,1.19,1.19,0,1,1,2.05-.26A1.25,1.25,0,0,1,446,87.86Z"/>
            </g>
            <rect class="cls-8" x="243.36" y="85.29" width="0.42" height="4.8"/>
          </g>
          <g>
            <path class="cls-5" d="M495.63,92a4.82,4.82,0,0,1-1.3.54,4.5,4.5,0,0,1-5.43-3.3A4.49,4.49,0,1,1,495.63,92Z"/>
            <g>
              <path class="cls-2" d="M494.63,87.62a1.37,1.37,0,1,1-1.37-1.37A1.37,1.37,0,0,1,494.63,87.62Z"/>
              <path class="cls-2" d="M495.63,91.39V92a4.82,4.82,0,0,1-1.3.54A4.43,4.43,0,0,1,490.9,92v-.56a2.37,2.37,0,0,1,4.73,0Z"/>
            </g>
          </g>
          <path class="cls-7" d="M480.06,92.63h-3.13V91.52a.16.16,0,0,0-.09-.15l-.34-.19a.17.17,0,0,0-.18,0l-1,.55L473.8,89l1-.56a.18.18,0,0,0,.08-.16c0-.06,0-.13,0-.19s0-.13,0-.19a.18.18,0,0,0-.08-.16l-1-.56,1.56-2.7,1,.55a.17.17,0,0,0,.18,0,3.79,3.79,0,0,1,.34-.2.14.14,0,0,0,.09-.14V83.59h3.13V84.7a.18.18,0,0,0,.09.15,1.86,1.86,0,0,1,.34.19.17.17,0,0,0,.18,0l1-.55,1.56,2.7-1,.56a.18.18,0,0,0-.08.16c0,.06,0,.12,0,.19s0,.13,0,.19a.18.18,0,0,0,.08.16l1,.56-1.56,2.7-1-.55a.17.17,0,0,0-.18,0l-.34.19a.16.16,0,0,0-.09.15Zm-2.35-.78h1.57v-.33a.94.94,0,0,1,.52-.84l.27-.16a1,1,0,0,1,1,0l.28.17.79-1.36-.29-.17a.93.93,0,0,1-.47-.87V88a.94.94,0,0,1,.47-.88l.29-.16-.79-1.36-.28.16a.93.93,0,0,1-1,0l-.27-.15a1,1,0,0,1-.52-.84v-.33h-1.57v.33a1,1,0,0,1-.52.84l-.27.15a.93.93,0,0,1-1,0l-.28-.16-.79,1.36.29.16a.94.94,0,0,1,.47.88v.3a1,1,0,0,1-.47.88l-.29.16.79,1.36.28-.17a1,1,0,0,1,1,0l.27.16a.94.94,0,0,1,.52.84Zm.79-1.43a2.31,2.31,0,1,1,2.31-2.31A2.31,2.31,0,0,1,478.5,90.42Zm0-3.84A1.53,1.53,0,1,0,480,88.11,1.53,1.53,0,0,0,478.5,86.58Z"/>
          <g>
            <g>
              <rect class="cls-1" x="221.42" y="124.27" width="288.1" height="16.33"/>
              <g>
                <rect class="cls-2" x="234.2" y="129.98" width="4.9" height="4.9"/>
                <polygon class="cls-2" points="259.94 134.88 255.04 134.88 257.04 132.43 255.04 129.98 259.94 129.98 261.94 132.43 259.94 134.88"/>
                <polygon class="cls-5" points="247.34 129.98 248.13 131.59 249.92 131.85 248.63 133.11 248.93 134.88 247.34 134.04 245.74 134.88 246.05 133.11 244.76 131.85 246.54 131.59 247.34 129.98"/>
                <rect class="cls-6" x="265.46" y="131.43" width="39.07" height="2"/>
                <rect class="cls-6" x="452.62" y="131.43" width="35.47" height="2"/>
                <rect class="cls-9" x="316.46" y="131.43" width="121.26" height="2"/>
              </g>
            </g>
            <g>
              <rect class="cls-10" x="234.2" y="146.31" width="4.9" height="4.9"/>
              <polygon class="cls-10" points="259.94 151.21 255.04 151.21 257.04 148.76 255.04 146.31 259.94 146.31 261.94 148.76 259.94 151.21"/>
              <polygon class="cls-5" points="247.34 146.31 248.13 147.92 249.92 148.18 248.63 149.44 248.93 151.21 247.34 150.37 245.74 151.21 246.05 149.44 244.76 148.18 246.54 147.92 247.34 146.31"/>
              <rect class="cls-6" x="265.46" y="147.76" width="39.07" height="2"/>
              <rect class="cls-6" x="452.62" y="147.76" width="35.47" height="2"/>
              <rect class="cls-9" x="316.46" y="147.76" width="121.26" height="2"/>
            </g>
            <g>
              <rect class="cls-1" x="221.42" y="156.92" width="288.1" height="16.33"/>
              <g>
                <rect class="cls-2" x="234.2" y="162.63" width="4.9" height="4.9"/>
                <polygon class="cls-2" points="259.94 167.54 255.04 167.54 257.04 165.09 255.04 162.63 259.94 162.63 261.94 165.09 259.94 167.54"/>
                <polygon class="cls-2" points="247.34 162.63 248.13 164.25 249.92 164.51 248.63 165.76 248.93 167.54 247.34 166.7 245.74 167.54 246.05 165.76 244.76 164.51 246.54 164.25 247.34 162.63"/>
                <rect class="cls-7" x="265.46" y="164.09" width="39.07" height="2"/>
                <rect class="cls-7" x="452.62" y="164.09" width="35.47" height="2"/>
                <rect class="cls-8" x="316.46" y="164.09" width="121.26" height="2"/>
              </g>
            </g>
            <g>
              <rect class="cls-10" x="234.2" y="178.96" width="4.9" height="4.9"/>
              <polygon class="cls-10" points="259.94 183.87 255.04 183.87 257.04 181.42 255.04 178.96 259.94 178.96 261.94 181.42 259.94 183.87"/>
              <polygon class="cls-5" points="247.34 178.96 248.13 180.58 249.92 180.84 248.63 182.09 248.93 183.87 247.34 183.03 245.74 183.87 246.05 182.09 244.76 180.84 246.54 180.58 247.34 178.96"/>
              <rect class="cls-7" x="265.46" y="180.42" width="39.07" height="2"/>
              <rect class="cls-7" x="452.62" y="180.42" width="35.47" height="2"/>
              <rect class="cls-8" x="316.46" y="180.42" width="121.26" height="2"/>
            </g>
            <g>
              <rect class="cls-1" x="221.42" y="189.58" width="288.1" height="16.33"/>
              <g>
                <rect class="cls-2" x="234.2" y="195.29" width="4.9" height="4.9"/>
                <polygon class="cls-2" points="259.94 200.2 255.04 200.2 257.04 197.74 255.04 195.29 259.94 195.29 261.94 197.74 259.94 200.2"/>
                <polygon class="cls-5" points="247.34 195.29 248.13 196.91 249.92 197.16 248.63 198.42 248.93 200.2 247.34 199.36 245.74 200.2 246.05 198.42 244.76 197.16 246.54 196.91 247.34 195.29"/>
                <rect class="cls-7" x="265.46" y="196.75" width="39.07" height="2"/>
                <rect class="cls-7" x="452.62" y="196.75" width="35.47" height="2"/>
                <rect class="cls-8" x="316.46" y="196.75" width="121.26" height="2"/>
              </g>
            </g>
            <g>
              <rect class="cls-10" x="234.2" y="211.62" width="4.9" height="4.91"/>
              <polygon class="cls-10" points="259.94 216.53 255.04 216.53 257.04 214.07 255.04 211.62 259.94 211.62 261.94 214.07 259.94 216.53"/>
              <polygon class="cls-10" points="247.34 211.62 248.13 213.24 249.92 213.49 248.63 214.75 248.93 216.53 247.34 215.69 245.74 216.53 246.05 214.75 244.76 213.49 246.54 213.24 247.34 211.62"/>
              <rect class="cls-7" x="265.46" y="213.08" width="39.07" height="2"/>
              <rect class="cls-7" x="452.62" y="213.08" width="35.47" height="2"/>
              <rect class="cls-8" x="316.46" y="213.08" width="121.26" height="2"/>
            </g>
            <g>
              <rect class="cls-1" x="221.42" y="222.24" width="288.1" height="16.33"/>
              <g>
                <rect class="cls-2" x="234.2" y="227.95" width="4.9" height="4.9"/>
                <polygon class="cls-2" points="259.94 232.85 255.04 232.85 257.04 230.4 255.04 227.95 259.94 227.95 261.94 230.4 259.94 232.85"/>
                <polygon class="cls-5" points="247.34 227.95 248.13 229.56 249.92 229.82 248.63 231.08 248.93 232.85 247.34 232.02 245.74 232.85 246.05 231.08 244.76 229.82 246.54 229.56 247.34 227.95"/>
                <rect class="cls-7" x="265.46" y="229.4" width="39.07" height="2"/>
                <rect class="cls-7" x="452.62" y="229.4" width="35.47" height="2"/>
                <rect class="cls-8" x="316.46" y="229.4" width="121.26" height="2"/>
              </g>
            </g>
            <g>
              <rect class="cls-10" x="234.2" y="244.28" width="4.9" height="4.9"/>
              <polygon class="cls-10" points="259.94 249.18 255.04 249.18 257.04 246.73 255.04 244.28 259.94 244.28 261.94 246.73 259.94 249.18"/>
              <polygon class="cls-10" points="247.34 244.28 248.13 245.89 249.92 246.15 248.63 247.41 248.93 249.18 247.34 248.34 245.74 249.18 246.05 247.41 244.76 246.15 246.54 245.89 247.34 244.28"/>
              <rect class="cls-7" x="265.46" y="245.73" width="39.07" height="2"/>
              <rect class="cls-7" x="452.62" y="245.73" width="35.47" height="2"/>
              <rect class="cls-8" x="316.46" y="245.73" width="121.26" height="2"/>
            </g>
            <g>
              <rect class="cls-1" x="221.42" y="254.89" width="288.1" height="16.33"/>
              <g>
                <rect class="cls-2" x="234.2" y="260.61" width="4.9" height="4.91"/>
                <polygon class="cls-2" points="259.94 265.51 255.04 265.51 257.04 263.06 255.04 260.61 259.94 260.61 261.94 263.06 259.94 265.51"/>
                <polygon class="cls-2" points="247.34 260.61 248.13 262.22 249.92 262.48 248.63 263.74 248.93 265.51 247.34 264.67 245.74 265.51 246.05 263.74 244.76 262.48 246.54 262.22 247.34 260.61"/>
                <rect class="cls-7" x="265.46" y="262.06" width="39.07" height="2"/>
                <rect class="cls-7" x="452.62" y="262.06" width="35.47" height="2"/>
                <rect class="cls-8" x="316.46" y="262.06" width="121.26" height="2"/>
              </g>
            </g>
            <g>
              <rect class="cls-10" x="234.2" y="276.93" width="4.9" height="4.91"/>
              <polygon class="cls-10" points="259.94 281.84 255.04 281.84 257.04 279.39 255.04 276.94 259.94 276.94 261.94 279.39 259.94 281.84"/>
              <polygon class="cls-10" points="247.34 276.94 248.13 278.55 249.92 278.81 248.63 280.06 248.93 281.84 247.34 281 245.74 281.84 246.05 280.06 244.76 278.81 246.54 278.55 247.34 276.94"/>
              <rect class="cls-7" x="265.46" y="278.39" width="39.07" height="2"/>
              <rect class="cls-7" x="452.62" y="278.39" width="35.47" height="2"/>
              <rect class="cls-8" x="316.46" y="278.39" width="121.26" height="2"/>
            </g>
            <g>
              <rect class="cls-1" x="221.42" y="287.55" width="288.1" height="16.33"/>
              <g>
                <rect class="cls-2" x="234.2" y="293.26" width="4.9" height="4.9"/>
                <polygon class="cls-2" points="259.94 298.17 255.04 298.17 257.04 295.72 255.04 293.26 259.94 293.26 261.94 295.72 259.94 298.17"/>
                <polygon class="cls-5" points="247.34 293.26 248.13 294.88 249.92 295.14 248.63 296.39 248.93 298.17 247.34 297.33 245.74 298.17 246.05 296.39 244.76 295.14 246.54 294.88 247.34 293.26"/>
                <rect class="cls-7" x="265.46" y="294.72" width="39.07" height="2"/>
                <rect class="cls-7" x="452.62" y="294.72" width="35.47" height="2"/>
                <rect class="cls-8" x="316.46" y="294.72" width="121.26" height="2"/>
              </g>
            </g>
          </g>
          <g>
            <rect class="cls-7" x="250" y="109.53" width="54.54" height="5.84"/>
            <g>
              <rect class="cls-7" x="234.2" y="109.53" width="7.43" height="5.84"/>
              <g>
                <path class="cls-2" d="M241.64,109.53c-.3.33-.61.64-.91,1l-.92.93-1,1,0,0-.86.83,0,0,0,0-.86-.84,0,0-1-1-.92-.93c-.3-.32-.61-.63-.91-1l1,.86.94.87,1,1h0l.78.75.78-.75h0l1.05-1,.94-.87Z"/>
                <path class="cls-2" d="M237.15,112.24h0l-.12.15a7.89,7.89,0,0,1-.57.7c-.24.28-.48.54-.72.81l-.74.76c-.25.25-.51.49-.77.71.22-.3.46-.59.7-.86s.48-.55.72-.81.49-.52.74-.76.4-.39.61-.57l.15-.13Z"/>
                <path class="cls-2" d="M241.62,115.38c-.26-.22-.52-.46-.77-.71l-.74-.76c-.24-.27-.49-.53-.72-.81s-.39-.45-.57-.69l-.12-.16h0l.15.13c.21.18.41.37.61.57s.5.5.74.76.49.53.72.81S241.4,115.08,241.62,115.38Z"/>
              </g>
            </g>
          </g>
          <g>
            <rect class="cls-7" x="341.78" y="109.53" width="54.54" height="5.84"/>
            <g>
              <g>
                <path class="cls-7" d="M329.34,111.52a1.24,1.24,0,1,1-1.24-1.24A1.23,1.23,0,0,1,329.34,111.52Z"/>
                <path class="cls-7" d="M330.24,114.93v.45H326v-.45a2.14,2.14,0,1,1,4.28,0Z"/>
              </g>
              <g>
                <path class="cls-7" d="M332.51,110.77a1.24,1.24,0,1,1-1.24-1.24A1.23,1.23,0,0,1,332.51,110.77Z"/>
                <path class="cls-7" d="M333.41,114.18v.45h-4.28v-.45a2.14,2.14,0,0,1,4.28,0Z"/>
              </g>
            </g>
          </g>
          <g>
            <rect class="cls-7" x="433.56" y="109.53" width="54.54" height="5.84"/>
            <path class="cls-7" d="M425.19,109.54h-7.43v5.84h7.43l2.22-2.92Zm.06,3.36a.44.44,0,0,1-.44-.44.44.44,0,0,1,.44-.44.43.43,0,0,1,.44.44A.44.44,0,0,1,425.25,112.9Z"/>
          </g>
          <g>
            <rect class="cls-5" x="130.18" y="68.96" width="91.24" height="234.91"/>
            <rect class="cls-2" x="142.94" y="103.74" width="65.73" height="17.43"/>
            <g>
              <rect class="cls-2" x="142.94" y="83.66" width="9.16" height="1.47"/>
              <rect class="cls-2" x="142.94" y="90.26" width="9.16" height="1.47"/>
              <rect class="cls-2" x="142.94" y="87" width="9.16" height="1.47"/>
            </g>
            <g>
              <rect class="cls-1" x="160.8" y="83.66" width="12.74" height="8.08"/>
              <path class="cls-1" d="M173.54,83.66v8.07H160.8V83.66c.55.3,1.09.63,1.63,1s1.08.64,1.61,1l1.79,1.11h0l1.34.84,1.34-.84h0l1.79-1.11c.53-.33,1.07-.65,1.61-1S173,84,173.54,83.66Z"/>
              <g>
                <path class="cls-2" d="M173.54,83.66,172,84.72l-1.57,1-1.65,1.07,0,0-1.47.94-.07,0-.07,0-1.47-.94,0,0-1.65-1.07-1.57-1-1.56-1.06c.55.3,1.09.63,1.63,1s1.08.64,1.61,1l1.79,1.11h0l1.34.84,1.34-.84h0l1.79-1.11c.53-.33,1.07-.65,1.61-1S173,84,173.54,83.66Z"/>
                <path class="cls-2" d="M165.85,86.68h0l-.2.17c-.32.27-.64.53-1,.78s-.82.61-1.23.9-.84.58-1.27.85-.87.55-1.32.79c.39-.34.79-.65,1.2-1s.82-.61,1.23-.9.85-.58,1.28-.85.69-.44,1-.64l.25-.14Z"/>
                <path class="cls-2" d="M173.51,90.18c-.45-.24-.89-.51-1.32-.79s-.85-.56-1.27-.85-.83-.59-1.24-.9-.65-.51-1-.78l-.2-.17h0l.25.14c.35.2.7.42,1,.64s.86.56,1.27.85.84.59,1.24.9S173.12,89.84,173.51,90.18Z"/>
              </g>
            </g>
            <rect class="cls-11" x="130.18" y="136.37" width="91.24" height="12.39"/>
            <rect class="cls-2" x="142.94" y="139.03" width="52.91" height="7.28"/>
            <rect class="cls-2" x="142.94" y="153.28" width="52.91" height="7.28"/>
            <rect class="cls-2" x="142.94" y="167.54" width="52.91" height="7.28"/>
            <rect class="cls-2" x="142.94" y="181.79" width="52.91" height="7.28"/>
            <rect class="cls-9" x="154.17" y="196.05" width="52.91" height="7.28"/>
            <rect class="cls-9" x="154.17" y="210.3" width="52.91" height="7.28"/>
            <rect class="cls-2" x="142.94" y="224.56" width="52.91" height="7.28"/>
            <rect class="cls-2" x="142.94" y="238.81" width="52.91" height="7.28"/>
          </g>
        </g>
      </g>
    </g>
    <g id="Paper_Plane" data-name="Paper Plane">
      <g>
        <g>
          <path class="cls-12" d="M129.93,227.48c0,.66,0,1.33.08,2"/>
          <path class="cls-13" d="M130.87,234.41c6.59,25.15,46.76,55.6,91.47,36.23,48.19-20.87,46.4-100.26,108.63-133.79"/>
          <path class="cls-12" d="M333.19,135.69l1.79-.89"/>
        </g>
        <g>
          <polygon class="cls-5" points="331.09 123.94 324.82 141.16 337.99 130.88 388.33 112.62 331.09 123.94"/>
          <polygon class="cls-14" points="331.09 123.94 324.82 141.16 337.99 130.88 388.33 112.62 331.09 123.94"/>
          <polygon class="cls-6" points="339.68 134.9 324.82 141.16 337.99 130.88 339.68 134.9"/>
          <polygon class="cls-5" points="337.99 130.88 388.33 112.62 347.04 152.92 337.99 130.88"/>
          <polygon class="cls-5" points="331.09 123.94 310.17 110.43 388.33 112.62 331.09 123.94"/>
        </g>
      </g>
    </g>
    <g id="Speech_Bubble" data-name="Speech Bubble">
      <g>
        <circle class="cls-4" cx="511.17" cy="68.4" r="48.78" transform="translate(321.89 548.14) rotate(-76.09)"/>
        <g>
          <rect class="cls-2" x="477.88" y="47.29" width="66.59" height="42.23"/>
          <g>
            <path class="cls-7" d="M544.47,47.29c-2.69,2.57-5.43,5-8.14,7.56s-5.47,5-8.22,7.41-5.75,5.09-8.63,7.61l-.26.24-7.67,6.66-.38.31-.37-.31-7.66-6.67-.27-.23c-2.89-2.52-5.77-5.05-8.64-7.63s-5.48-4.91-8.21-7.39-5.45-5-8.14-7.56c2.86,2.2,5.67,4.52,8.5,6.78s5.64,4.6,8.44,6.94c3.12,2.58,6.24,5.21,9.35,7.86l0,0,7,5.94c2.32-2,4.65-4,7-5.94,0,0,0,0,0,0q4.67-4,9.35-7.87c2.8-2.32,5.61-4.64,8.43-6.92S541.61,49.49,544.47,47.29Z"/>
            <path class="cls-7" d="M504.27,69.83l-.08.07-1.05.89c-1.67,1.41-3.38,2.76-5.12,4.07-2.12,1.62-4.29,3.17-6.47,4.71s-4.39,3-6.64,4.45-4.52,2.86-6.87,4.15c2-1.77,4.12-3.42,6.24-5s4.3-3.18,6.47-4.72,4.4-3,6.65-4.46c1.79-1.15,3.61-2.28,5.47-3.34l1.3-.73Z"/>
            <path class="cls-7" d="M544.31,88.17c-2.35-1.29-4.63-2.7-6.87-4.15s-4.45-2.94-6.65-4.45-4.35-3.09-6.47-4.71c-1.73-1.31-3.44-2.65-5.1-4.06l-1.06-.9-.08-.07.1,0,1.3.74c1.86,1.06,3.67,2.19,5.47,3.34,2.25,1.44,4.45,2.94,6.64,4.46s4.35,3.09,6.47,4.72S542.29,86.4,544.31,88.17Z"/>
          </g>
        </g>
        <g>
          <circle class="cls-5" cx="537.18" cy="47.29" r="10.74" transform="translate(13.72 176.85) rotate(-18.93)"/>
          <path class="cls-2" d="M536,49.65V40.91a1.2,1.2,0,0,1,1.19-1.19,1.18,1.18,0,0,1,1.17,1.19v8.74a1.16,1.16,0,0,1-1.17,1.18A1.18,1.18,0,0,1,536,49.65Zm1.19,5.21A1.19,1.19,0,0,1,536,53.67v-.43a1.2,1.2,0,0,1,1.19-1.19,1.18,1.18,0,0,1,1.17,1.19v.43A1.17,1.17,0,0,1,537.19,54.86Z"/>
        </g>
      </g>
    </g>
    <g id="Plant">
      <g>
        <g>
          <g>
            <path class="cls-6" d="M587.32,224.88a75.64,75.64,0,0,1,1.76-12.34,27.34,27.34,0,0,1,4.41-10.41,13.2,13.2,0,0,1,8.64-5.39c3.39-.41,6.57,1.1,9.1,3.23,3.14,2.64,5.54,6.14,7.79,9.53a116.45,116.45,0,0,1,6.74,11.79c.07.13-.14.24-.21.11a72.58,72.58,0,0,0-6-9.86,62,62,0,0,0-6.93-8.4c-2.33-2.27-5.28-4.39-8.65-4.5a10.65,10.65,0,0,0-8.46,4.36c-2.25,2.89-3.4,6.49-4.26,10a75,75,0,0,0-1.73,11.75c-.67,8.13-.85,16.31-1,24.46q-.15,6.93-.21,13.85l-.06,7a41.2,41.2,0,0,1-.27,6.76c-.07.46-.81.41-.89,0a40.32,40.32,0,0,1-.31-6.41c0-2.21-.06-4.43-.08-6.64q-.06-6.47,0-12.93C586.63,242.19,586.73,233.51,587.32,224.88Z"/>
            <g>
              <path class="cls-5" d="M598.94,218.75c.43-2.3,1.21-5.29,2.52-7.08,2.35-3.2,4.89-1.8,2.54,1.74a21.26,21.26,0,0,0-3.3,8.74s4,5.65,8.73,8.44c-.2-2.18-.82-5.52-.39-8.74.92-7,5.14-6.59,4.1-1a47.89,47.89,0,0,0-1,11.22,23.62,23.62,0,0,0,5.1,2.5c-.27-.81-.56-1.78-.88-3-1.7-6.26,2.48-8.21,2.61-4.69a49,49,0,0,0,1.62,8.88c2.29.77,4.19,1.3,5.35,1.71a19.44,19.44,0,0,1,7.83,5.35,24.68,24.68,0,0,0,5.34-6.91c-1.46-1.25-3.77-3.12-7-5.38-6-4.24-3.91-9.59.85-6.26,3.44,2.4,6.1,6.85,7.3,9.13a37.1,37.1,0,0,0,2.73-12.5c-4.72-4.42-16.38-10.59-12.86-10.59,3.16,0,10.24,4.64,12.83,6.43a32.42,32.42,0,0,0-.4-3.64c-4.44-2.91-18.87-7.43-16.57-8.74,2.53-1.42,12.6,3.24,15.64,4.71a18.31,18.31,0,0,0-2.67-5.52c-6.13-8.22-17.2-11-22-9.48-3.42,1.11-2.42,9.77-3.16,9.48C600.13,198,593.89,201.92,598.94,218.75Zm33.63-.95c1-1.17,5.48,2.29,4.18,4.18S631.32,219.31,632.57,217.8Zm-23.52-7.39c1.18.75-.57,5.13-2.4,3.81C605.1,213.09,607.85,209.65,609.05,210.41Z"/>
              <path class="cls-6" d="M610.84,211.75c.62-1.22,1.27-2.44,2-3.62a21.28,21.28,0,0,1,2.27-3.28c-.19-.24-.38-.49-.59-.73-.08-.09.06-.23.15-.13.23.26.45.53.67.8a.22.22,0,0,1,.1.11c.84,1,1.64,2.06,2.4,3.13a36.41,36.41,0,0,1,4,1.15c1.35.45,2.68.92,4,1.47.13.06.07.29-.07.23-1.3-.58-2.61-1.13-4-1.59s-2.57-.76-3.85-1.12c.41.59.83,1.19,1.22,1.79a47.4,47.4,0,0,1,7.05,2.88c2.38,1.13,4.67,2.44,6.95,3.76a.12.12,0,0,1-.12.2,74.2,74.2,0,0,0-6.92-3.58c-2.21-1-4.49-1.88-6.71-2.87,5.6,8.75,9,18.84,13.45,28.18.07.14-.14.25-.2.11-1.37-3.27-2.95-6.47-4.45-9.69-1.34-2.89-2.65-5.8-4-8.69-.39-.85-.8-1.7-1.21-2.54.25,4.67.15,9.42.91,14a.11.11,0,1,1-.22,0c-.33-5-1.21-9.9-1.17-14.92,0,0,0,0,0-.06-.95-1.91-2-3.79-3-5.63-1.86,4.38-3.81,8.81-4.68,13.51,0,.14-.26.08-.22-.07,1.26-4.71,2.43-9.42,4.7-13.77a54.31,54.31,0,0,0-3.95-5.68c-.62,1.16-1.42,2.26-2.13,3.37s-1.37,2.17-2,3.29a48.21,48.21,0,0,0-3.5,7.41c-.05.14-.28.07-.22-.07C608.53,216.67,609.62,214.17,610.84,211.75Z"/>
            </g>
          </g>
          <g>
            <path class="cls-6" d="M566.67,222.39c3.6-3.61,7.78-8.34,13.34-8.33,5.36,0,9.31,4.32,11.57,8.78,2.37,4.66,3.23,9.93,3.9,15.06a185.43,185.43,0,0,1,1.42,18.53c.1,3.44.08,6.88,0,10.32a68.36,68.36,0,0,1-.79,10.41c-.1.56-1,.58-1,0-.17-2.9-.05-5.81,0-8.71s0-5.7-.14-8.56c-.21-5.77-.63-11.53-1.31-17.26-.59-5-1.06-10.16-2.56-15-1.35-4.37-3.88-9.36-8.31-11.28-6-2.61-11.94,2.17-15.89,6.2C566.75,222.64,566.57,222.49,566.67,222.39Z"/>
            <g>
              <path class="cls-5" d="M548.33,230.44h0c0,.74.07,1.47.12,2.18a13,13,0,0,1,5.89-2.44c5.1-.54,4.78,3.34,1.37,3.5a19.43,19.43,0,0,0-7,1.4c.83,6.74,2.68,12.16,3,12.23a97.67,97.67,0,0,0,13.49-1.7c-1.27-2.71-4.16-6.3-2.69-6.59s3.08,2.91,3.9,6.34a64.94,64.94,0,0,0,9.81-2.7c-2.25-1.94-5.72-4.36-4.39-5.39s4.08,2.37,5.73,4.85a19.87,19.87,0,0,0,4.24-2.37c-3-4.44-10.4-5.34-9.44-8.55s7.86,1.24,11,7.19c3.63-3.77,4.7-9.11,4.32-13.67-3.17-.37-9.27.3-8.82-2s4.84-1.84,8.45-.51a12.7,12.7,0,0,0-2.12-5c-3.34-4.29-13.53,1.16-13.53,1.16s1.09-10.24-2.79-12c-2.24-1-6.19-1-10.16,1.33,2.23.18,4.91.88,6,2.43,1.39,2-.79,3-2.18,2.13-1-.65-2.8-2.67-6.09-2.94a20.43,20.43,0,0,0-3.67,4.07,19.83,19.83,0,0,0-1.08,1.7,14,14,0,0,1,11.93.21c4.41,2.19,2,6.78-1.85,5s-7.42-3.53-11.45-2.53a28.55,28.55,0,0,0-1.94,11.42,20,20,0,0,1,6.55-3.14c4.39-1.15,5.71,1.47.89,2A19.42,19.42,0,0,0,548.33,230.44Zm5.34-7.05c-.3-1.42,2.81-1.83,3.33-.67C557.43,223.7,554,224.82,553.67,223.39Zm26.64,7.88c.3-.77,2.38.11,2.19,1.08C582.24,233.64,580,232.05,580.31,231.27Zm-14.71,5c1.52-.6,3.89,3.17,2.24,4S564.36,236.76,565.6,236.26Z"/>
              <path class="cls-6" d="M552.27,246.54c2.29-3.82,4.55-7.67,7-11.43q1.68-2.62,3.51-5.14l-.55-.13c-.3-.07-.6-.12-.91-.18-.7-.12-1.41-.22-2.12-.29a19.34,19.34,0,0,0-2-.11,9.67,9.67,0,0,0-2.15.11c-.08,0-.1-.12,0-.12.71,0,1.44-.06,2.16-.07s1.39,0,2.08,0,1.31.1,1.95.2l1.07.19c.21,0,.43.07.64.13q1.86-2.55,3.86-5a45.79,45.79,0,0,0-12.53-4,.06.06,0,0,1,0-.12A42.52,42.52,0,0,1,567,224.49c.73-.9,1.46-1.79,2.2-2.68s1.72-2,2.47-3c0-.07.15,0,.09.07a43.13,43.13,0,0,0-2.9,3.55h0a42.75,42.75,0,0,1,4.65,3.74c1.53,1.35,3,2.74,4.46,4.18,0,0,0,.13-.09.08q-2.13-2.13-4.45-4.06c-1.54-1.28-3.17-2.46-4.73-3.73,0,0,0,0,0,0L567.6,224l-.54.71,0,.05c-.6.77-1.19,1.55-1.78,2.33a19.08,19.08,0,0,1,1.77,3.19c.51,1.08,1,2.2,1.37,3.32a48.86,48.86,0,0,1,1.91,7.17c0,.07-.1.1-.11,0a42.05,42.05,0,0,0-2.09-7c-.44-1.17-1-2.31-1.47-3.45s-1-2-1.5-3.07c-.51.68-1,1.36-1.52,2.06l-.43.6s0,.1,0,.11h0c-1.57,2.19-3.06,4.44-4.52,6.71a2.18,2.18,0,0,1,.2.5c.09.28.18.55.26.83a14.15,14.15,0,0,1,.4,1.71c.1.54.18,1.08.23,1.63a14.26,14.26,0,0,0,.14,1.85c0,.09-.13.1-.12,0a6.31,6.31,0,0,0-.12-1.73c-.09-.59-.2-1.18-.33-1.76s-.27-1.05-.42-1.56c-.08-.26-.17-.52-.25-.78a4.09,4.09,0,0,1-.16-.42c-.68,1.07-1.36,2.14-2,3.22-1.32,2.14-2.63,4.29-3.94,6.43C552.37,246.75,552.2,246.65,552.27,246.54Z"/>
            </g>
          </g>
          <g>
            <path class="cls-6" d="M587.56,275.93c.06-2.17.4-4.36.64-6.51s.48-4.33.71-6.5a95.89,95.89,0,0,1,1.68-12.54,18.2,18.2,0,0,1,5.1-9.38,8.28,8.28,0,0,1,5-2.38,8.59,8.59,0,0,1,5.31,1.63,18.55,18.55,0,0,1,4.47,4.71,46.18,46.18,0,0,1,3.48,5.66c0,.07-.08.12-.12,0a29,29,0,0,0-7.53-8.45,8.93,8.93,0,0,0-4.75-2,6.44,6.44,0,0,0-4.61,1.84,17.27,17.27,0,0,0-4.86,8.61,86.79,86.79,0,0,0-1.89,11.58l-.9,6.88c-.3,2.29-.49,4.63-1,6.88A.38.38,0,0,1,587.56,275.93Z"/>
            <g>
              <path class="cls-5" d="M598.23,259.09a11.88,11.88,0,0,0,2.36,2.4c-.36-2.11-.79-5.87.28-7.87,1.65-3.11,3.62-1.56,2.63,1.14a22,22,0,0,0-1.6,7.66,32.56,32.56,0,0,0,7.21,3.4,11.8,11.8,0,0,1-.24-3.71c.33-3.32,2.87-3.26,2.21.2a21.46,21.46,0,0,0-.35,4.06A74.88,74.88,0,0,0,622,268.9a32.84,32.84,0,0,0,4.65-8.27c-2.71-.68-8.19-.83-8.07-2.76.16-2.6,5.46-.6,8.57,1.28a20.63,20.63,0,0,0,.93-7,34.81,34.81,0,0,0-7.46-1.24c-5.57-.48-5.29-3.64-1.26-3.57,3,.06,6.75,1.88,8.53,2.83-1.16-7.58-6.94-12.43-11.57-12.62-7.79-.31-5,9.38-5,9.38S606,243.23,601,243.33,592.9,251.67,598.23,259.09Zm20.8-14c-.17-1.09,3.31-1.35,3.49.05C622.73,246.69,619.21,246.18,619,245.07Zm5.6,11.37c-.08-.71,1.43-.83,1.77.06C626.62,257.09,624.69,257.15,624.63,256.44Zm-18.71.67c1.18.16,1.84,4.36-.18,4.28C604.2,261.32,604.93,257,605.92,257.11Z"/>
              <g>
                <path class="cls-6" d="M607.55,261.77c.19-.52.36-1,.53-1.59-.15.54-.29,1.08-.39,1.63A.07.07,0,1,1,607.55,261.77Z"/>
                <path class="cls-6" d="M609.6,255c.37-1.07.78-2.14,1.2-3.19.22-.57.45-1.13.7-1.68a7.09,7.09,0,0,1,.69-1.41,10.42,10.42,0,0,1-.63-1.36s0-.07.07,0a15.81,15.81,0,0,1,1.52,2.36c.22.36.42.74.63,1.11a9.4,9.4,0,0,1,1.31.2c.47.09.94.18,1.4.29l1.39.32c.46.11.91.26,1.38.33.11,0,.06.19,0,.15a8,8,0,0,0-1.46-.38c-.44-.1-.89-.18-1.34-.24s-.91-.13-1.37-.17-.68-.05-1-.08c.19.32.38.65.56,1l.09.15a4.61,4.61,0,0,1,1.11.13c.41.08.81.15,1.21.24.81.18,1.62.37,2.42.6,1.69.47,3.35,1,5,1.55.09,0,0,.17-.06.14a46.46,46.46,0,0,0-5-1.4l-2.39-.53-1.2-.25a7.36,7.36,0,0,1-.93-.21c.85,1.59,1.66,3.19,2.4,4.84,1.62,3.57,3,7.25,4.36,10.92,0,.09-.1.15-.13.06a101.09,101.09,0,0,0-4.65-10.68c-.31-.63-.63-1.26-.94-1.9,0,.13-.06.26-.08.39-.08.43-.16.87-.23,1.3-.15.87-.3,1.74-.43,2.61a30.94,30.94,0,0,0-.63,5.41.08.08,0,1,1-.15,0c.14-.86.14-1.76.2-2.63s.12-1.83.23-2.73.21-1.75.36-2.62c.07-.43.14-.87.22-1.3a2.67,2.67,0,0,1,.25-.94c-.46-.92-.91-1.84-1.37-2.75s-.87-1.71-1.32-2.56c-.18-.36-.39-.72-.59-1.09a8.71,8.71,0,0,1-.52,1.31l-.6,1.48c-.44,1.08-.86,2.18-1.28,3.28-.58,1.56-1.23,3.15-1.72,4.78C608.67,258.21,609.07,256.59,609.6,255Z"/>
                <path class="cls-6" d="M608.08,260.18c0-.12.07-.25.11-.37C608.15,259.93,608.12,260.06,608.08,260.18Z"/>
              </g>
            </g>
          </g>
        </g>
        <g>
          <g>
            <polygon class="cls-15" points="574.53 271.71 575.08 283.31 576.49 313.19 607.33 313.19 608.74 283.31 609.29 271.71 574.53 271.71"/>
            <polygon class="cls-6" points="574.53 271.71 575.08 283.31 608.74 283.31 609.29 271.71 574.53 271.71"/>
          </g>
          <rect class="cls-15" x="572.34" y="267.02" width="39.14" height="9.38" transform="translate(1183.82 543.42) rotate(180)"/>
          <g>
            <rect class="cls-15" x="599.42" y="313.19" width="5.41" height="4.91"/>
            <rect class="cls-6" x="599.42" y="313.19" width="5.41" height="2.45"/>
          </g>
          <g>
            <rect class="cls-15" x="578.99" y="313.19" width="5.41" height="4.91"/>
            <rect class="cls-6" x="578.99" y="313.19" width="5.41" height="2.45"/>
          </g>
        </g>
      </g>
    </g>
    <g id="Chair">
      <g>
        <path class="cls-8" d="M36.77,405.9l144.58.62c35.15-27.59,38.78-68.47,13.7-93.26-15.17-15-34.44-12-52.78-14.35h-.06a54.31,54.31,0,0,1-18.61-5.47c-18.89-10-29.54-33.47-45.43-53.25q-3-3.72-6.22-7.21c-13.07-14-39.09-14.41-52.69,5.21C-15.31,288,.52,362.24,36.77,405.9Z"/>
        <path class="cls-7" d="M33.56,291.84c3.79,59.32,72.29,81.46,115.08,63.69,37.2-15.45,25-50.72-6.37-56.62h-.06a54.31,54.31,0,0,1-18.61-5.47c-18.89-10-29.54-33.47-45.43-53.25C54.49,227.89,30.78,248.41,33.56,291.84Z"/>
      </g>
    </g>
    <g id="Character">
      <g>
        <g>
          <g>
            <g>
              <path class="cls-16" d="M148.49,415.18c-2.14-.75-50.8-38.53-51.75-41.14-.36-1,4.73-8.4,11.13-17.17,1.38-1.9,2.82-3.85,4.29-5.82,9.55-12.81,20-26.18,20-26.18l32.63,25.18-20.87,25.48-4.58,5.6s12.17,22.79,12.9,25.77S150.64,415.93,148.49,415.18Z"/>
              <path class="cls-1" d="M117.29,344.21c-1.69,2.24-3.42,4.56-5.13,6.84-1.47,2-2.91,3.92-4.29,5.81-6.41,8.78-11.49,16.19-11.13,17.18,1,2.61,49.61,40.39,51.76,41.14s4.42-5.31,3.71-8.28-12.9-25.77-12.9-25.77l4.58-5.6,4.66-5.68Z"/>
            </g>
            <g>
              <path class="cls-5" d="M148.72,415.64c-2.17-.78-51.49-39.42-52.44-42.08-.44-1.23,7.34-12.07,15.79-23.32l32.16,25.05L139.54,381s12.27,23.25,13,26.28S150.9,416.41,148.72,415.64Z"/>
              <g>
                <g>
                  <path class="cls-6" d="M149.56,413.11c-8.11-6.68-41.44-32.86-50-38.85-.07-.05-.1,0,0,.05,7.9,6.8,41.44,32.71,49.9,38.94C149.63,413.38,149.73,413.25,149.56,413.11Z"/>
                  <path class="cls-6" d="M142.15,380c-2.78-3.16-7.15-5.78-11.45-5.41-.17,0-.15.26,0,.3a58.73,58.73,0,0,1,11.12,5.51A.27.27,0,0,0,142.15,380Z"/>
                  <path class="cls-6" d="M143.39,383.29c-2.78-3.15-7.15-5.77-11.45-5.4-.17,0-.15.25,0,.3a57.56,57.56,0,0,1,11.12,5.51A.27.27,0,0,0,143.39,383.29Z"/>
                  <path class="cls-6" d="M144.63,386.55c-2.78-3.16-7.15-5.78-11.45-5.41-.17,0-.15.26,0,.31a57.89,57.89,0,0,1,11.13,5.5A.27.27,0,0,0,144.63,386.55Z"/>
                  <path class="cls-6" d="M145.87,389.81c-2.78-3.16-7.15-5.78-11.45-5.41-.17,0-.15.25,0,.3a57.36,57.36,0,0,1,11.13,5.51A.27.27,0,0,0,145.87,389.81Z"/>
                </g>
                <g>
                  <path class="cls-6" d="M154.05,377.22c.1-2.76-2.9-3.83-5.15-3.75A22,22,0,0,0,138.05,377a.11.11,0,0,0,0,.18.51.51,0,0,0,.19.81c3.46,1.11,7,2.72,10.73,2.74C151.13,380.72,154,379.84,154.05,377.22Zm-10.22,1.36c-1.72-.5-3.4-1.09-5.14-1.53,2.12-.68,4.2-1.45,6.38-1.92a24.36,24.36,0,0,1,3.19-.51c1.65-.12,7,1,3.58,4.13C150,380.47,145.87,379.18,143.83,378.58Z"/>
                  <path class="cls-6" d="M130.45,369.66c1.78,3.25,4.91,5.6,7.55,8.11a.51.51,0,0,0,.8-.21c.06,0,.14,0,.14-.1a21.92,21.92,0,0,0-2.1-11.21c-1-2-3.39-4.14-5.77-2.73S129.4,367.77,130.45,369.66Zm.35-3.47c1.12-4.45,4.65-.34,5.34,1.17a23.85,23.85,0,0,1,1.07,3,63.65,63.65,0,0,1,1.37,6.53c-1.21-1.32-2.53-2.51-3.8-3.78C133.27,371.64,130.18,368.65,130.8,366.19Z"/>
                </g>
              </g>
            </g>
          </g>
          <g>
            <path class="cls-9" d="M198.42,300c-2.24,17-44,65.91-48.86,71.53l-1.1,1.27-34.57-26.56.4-.51,30.44-39.86s-50.34,29.37-75.52,16c-11.31-6-19.7-16.63-19.7-16.63l32.87-17.53s9.1,2.94,14.91,2.09c20-2.93,65-20,75.6-19.55C186.63,270.86,200.47,284.44,198.42,300Z"/>
            <path class="cls-6" d="M155.67,291.05a39.44,39.44,0,0,0-3.14,4l-3.25,4.22,0,0c.19-.42.38-.83.58-1.24.67-1.41,1.22-2.86,2-4.2.05-.08-.08-.16-.13-.08-.82,1.33-1.78,2.6-2.48,4-.34.66-.65,1.32-.94,2-.16.38-.33.75-.47,1.13a4.3,4.3,0,0,0-.2.54c-.48.65-1,1.31-1.42,2-1,1.49-1.93,3.06-3,4.53-.05.08.07.15.13.08,1-1.39,2.23-2.68,3.3-4s2.11-2.84,3.13-4.29l3-4.26a41.66,41.66,0,0,0,3-4.37C155.78,291.06,155.71,291,155.67,291.05Z"/>
            <path class="cls-6" d="M152,364.6c-1.89-1.76-3.94-3.39-5.94-5s-4-3.28-6.06-4.9c-4.06-3.25-8.1-6.53-12.2-9.72-2.26-1.76-4.53-3.49-6.87-5.12a.11.11,0,0,0-.13.18c3.84,3.5,7.94,6.69,12,9.93s8.13,6.49,12.25,9.68c2.25,1.74,4.48,3.54,6.84,5.14C152,364.83,152.09,364.68,152,364.6Z"/>
          </g>
        </g>
        <g>
          <path class="cls-6" d="M37.66,228.23a3,3,0,0,0,2.17,5.32,3.11,3.11,0,0,0,0,1.25,3.25,3.25,0,0,0,3.6,2.49,2.88,2.88,0,0,0,.05,1.05,2.95,2.95,0,0,0,5.2,1.16,3,3,0,0,0,3.49,2,2.7,2.7,0,0,0,1.12-.53,2.38,2.38,0,0,0,.05.26,3,3,0,0,0,3.56,2.21A2.92,2.92,0,0,0,59,241.66a2.93,2.93,0,0,0,3.33,1.64,3,3,0,0,0,2.18-2.06,3.33,3.33,0,0,0,2.15.23,3.21,3.21,0,0,0,2-1.49,3.19,3.19,0,0,0,2.45.42,3.25,3.25,0,0,0,2.51-3,3,3,0,0,0,1.16,0,3,3,0,0,0,2.28-3.17,3,3,0,0,0,1.43,0A3.24,3.24,0,0,0,81,230.3a3,3,0,0,0-.42-1,1.89,1.89,0,0,0,.52-.06,3,3,0,0,0,2.22-3.54,2.89,2.89,0,0,0-.78-1.41,3.25,3.25,0,0,0,2.15-3.82,3.17,3.17,0,0,0-.87-1.56,3.26,3.26,0,0,0,1.38-3.46,3.2,3.2,0,0,0-1.81-2.21,2.87,2.87,0,0,0,.45-2.34A2.93,2.93,0,0,0,82.36,209a3.24,3.24,0,0,0-2.24-5.32,2.92,2.92,0,0,0,0-1.41A3,3,0,0,0,77,200a3,3,0,0,0,0-1.4,3.26,3.26,0,0,0-3.9-2.44,2.62,2.62,0,0,0-.71.27,3.26,3.26,0,0,0-4-3,2.65,2.65,0,0,0-.76.28,3.23,3.23,0,0,0-.07-.92,3.27,3.27,0,0,0-3.92-2.44,3.22,3.22,0,0,0-2.07,1.53,3.23,3.23,0,0,0-5.06.46,3,3,0,0,0-5.41.46,3,3,0,0,0-4.72,2.06,3.21,3.21,0,0,0-2.59-.5,3.26,3.26,0,0,0-2.53,3.25,3,3,0,0,0-1.08,0A3,3,0,0,0,38,201.21a2.83,2.83,0,0,0,.42,1l-.19,0a3.26,3.26,0,0,0-2.44,3.91,2.84,2.84,0,0,0,.35.88,2.65,2.65,0,0,0-.79.07,3,3,0,0,0-2.21,3.55,2.92,2.92,0,0,0,1.33,1.85,3,3,0,0,0,.38,4.69,3.25,3.25,0,0,0,1.25,6.05,2.9,2.9,0,0,0-.8,2.75A3,3,0,0,0,37.66,228.23Z"/>
          <g>
            <path class="cls-16" d="M64.92,253.62c6.15,8.83,27.25,31.76,41.84,35.09,8,1.83,46.89,7.26,52.21,2.42,6.24-5.67,3.35-27.06-1.61-27.26-15.13-.59-43.13,2.37-50.13.83-3.16-.7-19.93-11.52-37.84-20.17C62.62,241.26,61,247.92,64.92,253.62Z"/>
            <g>
              <path class="cls-5" d="M149.12,262.7l-2.59,32s-35.25-.56-45.89-6.54-28-21.24-34.59-31.85-4.41-16.39,8.53-9.87,30.39,17,32.68,17.55S149.12,262.7,149.12,262.7Z"/>
              <path class="cls-6" d="M142.09,264.92c0-.08-.13-.11-.15,0-.44,2.2-.62,4.46-.87,6.68s-.48,4.61-.68,6.92c-.42,4.6-.9,9.23-1,13.85,0,.2.26.19.29,0,.69-4.54,1.06-9.14,1.49-13.71.21-2.26.41-4.53.57-6.8S142.12,267.23,142.09,264.92Z"/>
              <g>
                <path class="cls-2" d="M94.29,257.13a147.16,147.16,0,0,1-11.21,18c-.12-.12-.25-.23-.37-.33a146.93,146.93,0,0,0,11.14-17.9C94,257,94.15,257,94.29,257.13Z"/>
                <path class="cls-2" d="M98.49,259.47a143.21,143.21,0,0,1-11.6,18.9l-.38-.32a144,144,0,0,0,11.55-18.82Z"/>
              </g>
              <path class="cls-11" d="M115.3,292.24c-6-.95-11.46-2.26-14.66-4.06-10.64-6-28-21.24-34.59-31.85-5.06-8.1-5-13.39,1.13-12.53Z"/>
            </g>
          </g>
          <g>
            <path class="cls-5" d="M33.73,312.93c1.93.63,56.89-15.27,56.89-15.27l-6.49-19.08s3.2-6.14,1.72-12c-2-7.89-16.59-20.85-17.73-21.61-4.61-3.05-8.92-3-12.74-1C39.49,252.4,33.73,312.93,33.73,312.93Z"/>
            <g>
              <path class="cls-2" d="M83.11,261c-14.22,7-33.85,9.62-42.09,10.46,0-.17.09-.34.14-.51,8.3-.87,27.62-3.51,41.66-10.37Z"/>
              <path class="cls-2" d="M85.29,264.89c-15.1,8.24-37.93,11-45.57,11.74a4.87,4.87,0,0,1,.12-.52c7.77-.75,30.33-3.53,45.24-11.68C85.16,264.59,85.23,264.74,85.29,264.89Z"/>
            </g>
            <path class="cls-6" d="M75.66,251.8c1.41,1.65,2.93,3.21,4.39,4.82-.68-1.2-1.36-2.4-2.08-3.58,0,0,0,0,0,0a26.67,26.67,0,0,1,2.79,4.44,36.62,36.62,0,0,1,3,3.87,17.41,17.41,0,0,1,2.5,5.32,14.56,14.56,0,0,1,.16,5.88,37.62,37.62,0,0,1-1.85,6.58c-.1.28-.51.1-.43-.18,1-3.72,2.2-7.66,1.38-11.54s-3.23-7.1-5.57-10.16a54.13,54.13,0,0,0-4.47-5.33C75.47,251.82,75.59,251.72,75.66,251.8Z"/>
          </g>
          <g>
            <g>
              <path class="cls-16" d="M48.2,257.25c-4.42,25.06-.83,44,3.43,46.31,11.46,6.26,33.57-4.78,41.34-7.3,3.14-1,.12-27.08-3.34-26.37-8.52,1.73-23.74,10.58-24.17,10.54-.85-.09-1.84-6.49-6.22-25.14C55.69,240.21,50,247,48.2,257.25Z"/>
              <g>
                <path class="cls-16" d="M86.38,270.77s16.11-6.74,29.14-6.14c4.42.2,22.35,5.84,21.17,10.23-1.07,4-15.93-2.51-15.93-2.51s15.57,5.21,13.41,9.75-18-5-18-5,15.88,5.71,12.9,10c-2.25,3.27-17.06-4.57-17.06-4.57s13.62,5,11.45,8.46c-2.39,3.83-16.52-2.55-16.52-2.55-7,7.88-13.54,8.77-18.27,8.85C87.54,297.34,86.38,270.77,86.38,270.77Z"/>
                <g>
                  <path class="cls-6" d="M115.49,270.2c1.85.55,3.73,1.09,5.53,1.79s3.57,1.48,5.29,2.36a33.7,33.7,0,0,1,6.38,4c-3.7-2.56-10.09-5.19-11.89-5.9s-3.55-1.5-5.34-2.21C115.42,270.25,115.45,270.19,115.49,270.2Z"/>
                  <path class="cls-6" d="M112.81,276.64c2.34.8,4.68,1.51,7,2.41s4.38,1.95,6.6,3c.17.09.07.15-.1.08-2.26-1-4.42-1.69-6.7-2.62s-4.5-2-6.8-2.82C112.76,276.68,112.78,276.63,112.81,276.64Z"/>
                  <path class="cls-6" d="M109.52,281.75a54.7,54.7,0,0,1,10.39,4.51c.17.08,0,.15-.14.07-3.43-1.56-6.11-2.81-10.28-4.45C109.42,281.85,109.45,281.73,109.52,281.75Z"/>
                </g>
              </g>
            </g>
            <g>
              <path class="cls-5" d="M83.21,270.86,96.39,299S55.49,311,49.94,303.8,44.78,274,47.38,258.41s9.64-15.92,12.71-1.8,4.89,23,5.45,23S83.21,270.86,83.21,270.86Z"/>
              <g>
                <path class="cls-2" d="M63.56,272.54a114.54,114.54,0,0,1-18,9.7v-.54A113.55,113.55,0,0,0,63.44,272C63.49,272.2,63.52,272.37,63.56,272.54Z"/>
                <path class="cls-2" d="M64.72,277.41a115.84,115.84,0,0,1-19,10.15l0-.54A114.22,114.22,0,0,0,64.58,276.9C64.63,277.08,64.68,277.25,64.72,277.41Z"/>
              </g>
              <g>
                <path class="cls-6" d="M77.87,274.65c0-.07-.17,0-.14.05.74,2.12,1.72,4.16,2.63,6.21s1.92,4.22,2.91,6.31c2,4.18,3.88,8.42,6.09,12.48a.15.15,0,0,0,.26-.14c-1.7-4.26-3.71-8.42-5.64-12.58-1-2.06-1.93-4.12-2.94-6.16S79.06,276.62,77.87,274.65Z"/>
                <path class="cls-6" d="M74.78,304.22a18.2,18.2,0,0,0-3.43.57c-1.18.21-2.36.4-3.55.56a67.38,67.38,0,0,1-6.95.59c-2.28.06-7.93-.28-9.67-1.85a11,11,0,0,1-3-5.1,74.88,74.88,0,0,1-1.4-8,104.12,104.12,0,0,1-.54-17.21c.07-1.6.17-3.19.28-4.79s.31-3.25.37-4.88a.06.06,0,0,0-.11,0A57.87,57.87,0,0,0,45.74,272c-.1-1.65-.3-3.29-.33-4.94,0-.1-.15-.09-.14,0,0,1.74-.09,3.47,0,5.21,0,1,.14,1.95.25,2.92q-.21,3.32-.18,6.63a67.62,67.62,0,0,0,2,17.3c.67,2.46,1.71,4.81,4,6.12a14.42,14.42,0,0,0,5.38,1.41,44.78,44.78,0,0,0,11.78-.75c1.08-.2,2.17-.43,3.25-.67a13.05,13.05,0,0,0,3.1-.85A.06.06,0,0,0,74.78,304.22Z"/>
                <g>
                  <polygon class="cls-6" points="83.73 271.08 83.73 271.08 83.73 271.08 83.73 271.08"/>
                  <path class="cls-6" d="M83.15,270.33c-3,1.5-6,3-9,4.55l-4.44,2.27c-1.42.74-4.13,2.2-4.13,2.2,0-.68-.56-2.65-.84-3.92s-.64-2.76-1-4.14c-.09-.35-.19-.71-.29-1.07l-.18-2c-.1-1.06-.19-2.15-.36-3.21,0,0,0,0-.06,0a15.44,15.44,0,0,0,0,3q-.69-2.49-1.42-5a0,0,0,0,0-.09,0c.54,2.79,1.11,5.58,1.75,8.35.31,1.35.65,2.68,1,4a42.48,42.48,0,0,0,1.2,4.28,46.24,46.24,0,0,0,4.5-2q2.31-1.09,4.6-2.25c2.95-1.48,5.93-3,8.79-4.66,0,0,.44.93.47,1s.17-.08.14-.21A5.37,5.37,0,0,0,83.15,270.33Z"/>
                  <polygon class="cls-6" points="83.73 271.08 83.73 271.08 83.73 271.08 83.73 271.08"/>
                </g>
              </g>
            </g>
          </g>
          <g>
            <g>
              <rect class="cls-8" x="85.29" y="291" width="58.31" height="2.62"/>
              <polygon class="cls-4" points="97.76 291 95.77 293.62 143.6 293.62 143.6 291 97.76 291"/>
              <g>
                <polygon class="cls-8" points="100.26 293.62 157.09 293.62 161.82 255.02 104.99 255.02 100.26 293.62"/>
                <path class="cls-2" d="M127.58,274.32a3.39,3.39,0,0,0,3.4,3.46,3.54,3.54,0,0,0,3.52-3.46,3.39,3.39,0,0,0-3.4-3.46A3.53,3.53,0,0,0,127.58,274.32Z"/>
              </g>
            </g>
            <g>
              <path class="cls-16" d="M161.36,258.75c2.14,3.31,7.42,7.17,8.15,10a3.35,3.35,0,0,1-1.38,3.76s3.06,1.06,3.3,3.74c.12,1.38-2,2.78-2,2.78a4,4,0,0,1,2.48,3.36c0,1.91-2.06,3-2.06,3s1.9,2,1.32,4c-1.16,4-17.43,6.13-20.73.47-1.55-2.64,2.46-2.95,2.46-2.95s-5.87-1-6.39-4.29,4.69-3.43,4.69-3.43-5.67-1-5.87-4.48,5-2.86,5-2.86-3.94-2-3.47-4.71c.76-4.5,10,.29,13.5-1Z"/>
              <g>
                <path class="cls-6" d="M169.56,285.65a0,0,0,0,1,0,.09A28.45,28.45,0,0,1,152.7,287c-.18,0-.18-.35,0-.34A58,58,0,0,0,169.56,285.65Z"/>
                <path class="cls-6" d="M169.53,279.07c.07,0,.09.09,0,.11a26.59,26.59,0,0,1-18.5.18c-.21-.08-.31-.36-.07-.28C155.12,280.35,164.35,280.21,169.53,279.07Z"/>
                <path class="cls-6" d="M150,271.54c5.87,2,11.82,2,17.91,1.08.08,0,.09.1,0,.13-2.86,1.26-6.81,1.44-9.89,1.33a16.46,16.46,0,0,1-8.13-2.34C149.83,271.68,149.87,271.49,150,271.54Z"/>
              </g>
            </g>
          </g>
          <g>
            <path class="cls-16" d="M52.73,245.92s9.72,8.24,15.9,6.73S71,244.87,71,244.87s-5.64-3.44-11.67-2.65A10.47,10.47,0,0,0,52.73,245.92Z"/>
            <g>
              <path class="cls-16" d="M57.73,244.44c.22,1,4.87,7.51,9.41,7.37,1.48-.05,1.57-8.14,1.57-8.14l.14-.6,2-8.34-11.15-7.3S57.64,244,57.73,244.44Z"/>
              <path class="cls-6" d="M70.84,234.73l-2,8.34a17.24,17.24,0,0,1-9.84-10c.34-2.87.63-5.26.67-5.61a.18.18,0,0,0,0,0l1.41.85Z"/>
            </g>
            <g>
              <path class="cls-16" d="M82.8,222.62c.31,15-8.67,16.94-11.91,17-3,.06-13-.12-14.85-15.05s5-19.84,11.76-20.33S82.49,207.58,82.8,222.62Z"/>
              <g>
                <path class="cls-6" d="M80.48,220.22a8.8,8.8,0,0,1-1-.26,1.68,1.68,0,0,1-1-.47.53.53,0,0,1,0-.65,1.33,1.33,0,0,1,1.32-.24,1.88,1.88,0,0,1,1.19.75A.56.56,0,0,1,80.48,220.22Z"/>
                <path class="cls-6" d="M70.23,221c.35,0,.68-.11,1-.17a1.67,1.67,0,0,0,1-.37.53.53,0,0,0,0-.65,1.32,1.32,0,0,0-1.29-.37,1.92,1.92,0,0,0-1.26.63A.57.57,0,0,0,70.23,221Z"/>
                <g>
                  <g>
                    <path class="cls-6" d="M72.25,223.34s-.08,0-.08.09c0,1-.16,2.2-1.1,2.52,0,0,0,.06,0,.05C72.21,225.87,72.42,224.31,72.25,223.34Z"/>
                    <path class="cls-6" d="M71.36,222.25c-1.64-.17-1.86,3.13-.33,3.29S72.74,222.39,71.36,222.25Z"/>
                  </g>
                  <path class="cls-6" d="M70.7,222.38c-.3.17-.6.48-1,.49s-.69-.35-.93-.7c0,0,0,0-.06,0-.05.64.15,1.3.82,1.44s1.1-.41,1.3-1C70.91,222.49,70.82,222.31,70.7,222.38Z"/>
                </g>
                <g>
                  <g>
                    <path class="cls-6" d="M78.19,223.39s.08.05.07.09c-.1,1-.05,2.21.85,2.61,0,0,0,.07,0,.06C78,225.91,77.93,224.34,78.19,223.39Z"/>
                    <path class="cls-6" d="M79.18,222.39c1.66,0,1.54,3.3,0,3.3S77.8,222.39,79.18,222.39Z"/>
                  </g>
                  <path class="cls-6" d="M79.86,222.63c.26.18.51.51.82.54s.64-.31.88-.65c0,0,0,0,0,0,0,.63-.23,1.28-.84,1.38s-1-.46-1.08-1.1C79.67,222.73,79.76,222.55,79.86,222.63Z"/>
                </g>
                <path class="cls-6" d="M71.53,232.39c.21.27.41.63.77.71a2.72,2.72,0,0,0,1.13-.1s.06,0,0,.05a1.38,1.38,0,0,1-1.36.38,1.12,1.12,0,0,1-.68-1C71.42,232.36,71.5,232.35,71.53,232.39Z"/>
                <path class="cls-6" d="M76.2,228.73s.09,1.54,0,2.26c0,.07-.18.08-.43.08h0a3.43,3.43,0,0,1-3.21-1.55c0-.08,0-.14.11-.09a5.2,5.2,0,0,0,3,1.15c.07-.2-.23-2.64-.12-2.64a6.37,6.37,0,0,1,1.6.5c-.08-3.21-.69-6.39-.72-9.6a.1.1,0,0,1,.19,0,52.29,52.29,0,0,1,1.22,10.31C77.92,229.53,76.48,228.87,76.2,228.73Z"/>
                <g>
                  <path class="cls-6" d="M75.79,230.78a4.15,4.15,0,0,1-1.66,1.33,1.87,1.87,0,0,1-1.15.09c-.83-.2-.86-1-.72-1.62a4.29,4.29,0,0,1,.35-1A5.46,5.46,0,0,0,75.79,230.78Z"/>
                  <path class="cls-17" d="M74.13,232.11a1.87,1.87,0,0,1-1.15.09c-.83-.2-.86-1-.72-1.62A2,2,0,0,1,74.13,232.11Z"/>
                </g>
              </g>
              <path class="cls-6" d="M57.21,223.92c1.59-.1,5.72-4.5,5.82-12.2,0,0-.56,6.91-1.08,7.92s2.31-2.47,2.48-8.68a25.16,25.16,0,0,0,6.38,3.28c2.94.81,4.73.78,4.94.56s-4.11-1.55-5.28-2.89c0,0,7.81,3.59,11.4,3.85.42,0,.31-7.36-5.27-11s-13.78-.81-16.14,1.48c0,0-1.67.76-4.67,4.88S55.49,224,57.21,223.92Z"/>
              <g>
                <path class="cls-5" d="M56.91,227.51c.76,2.1-5.17-7.39-5.3-8.94s2-9.43,8.1-13.35c5.1-3.29,12-2.15,13.16-1.94a9.46,9.46,0,0,1,3.73,1.51s-9-1.52-16.14,1.48C57,207.72,54.05,219.67,56.91,227.51Z"/>
                <g>
                  <g>
                    <path class="cls-5" d="M56.86,204.84s1.19-4.77,5.08-6.51c0,0,1.12,4,.12,5.83-.5.88-3.58,2.16-4.11,1.75A7.5,7.5,0,0,1,56.86,204.84Z"/>
                    <path class="cls-18" d="M56.86,204.84a8.43,8.43,0,0,0,1.08,1.07.19.19,0,0,0,.09,0,.16.16,0,0,0,.11,0h.09a4.66,4.66,0,0,0,1.77-.47,9.65,9.65,0,0,0-1-1.6,2.84,2.84,0,0,0-1.56-.72A10.53,10.53,0,0,0,56.86,204.84Z"/>
                  </g>
                  <g>
                    <path class="cls-5" d="M56.05,205.7s-5.91.93-8.22,3A8,8,0,0,0,53.29,211c1.36-.08,4.33-3.55,3.92-4.15A6.1,6.1,0,0,0,56.05,205.7Z"/>
                    <path class="cls-18" d="M54.72,206a3.4,3.4,0,0,0,.69,1.83,2.91,2.91,0,0,0,1,.69c.56-.73.91-1.39.75-1.62a5.91,5.91,0,0,0-1.15-1.15S55.52,205.78,54.72,206Z"/>
                  </g>
                  <path class="cls-5" d="M55.87,207.16a1.94,1.94,0,1,0,0-2.74A1.93,1.93,0,0,0,55.87,207.16Z"/>
                </g>
              </g>
              <g>
                <path class="cls-16" d="M58.46,225.67s-3-4.9-5.18-3.87-.18,8,2.25,9.08a2.56,2.56,0,0,0,3.5-1.14Z"/>
                <path class="cls-6" d="M53.91,223.78s0,.05,0,.06c1.71.83,2.52,2.51,3.06,4.24a1.4,1.4,0,0,0-2.07-.52c-.05,0,0,.1,0,.09a1.57,1.57,0,0,1,1.68.66,7,7,0,0,1,.73,1.45c.07.16.36.09.31-.09v0C57.82,227.4,56.29,224.16,53.91,223.78Z"/>
              </g>
            </g>
          </g>
        </g>
        <g>
          <g>
            <g>
              <path class="cls-16" d="M273.8,371.48c-.79,2.13-39.4,50.13-42,51-1,.34-8.32-4.87-17-11.43-1.87-1.41-3.8-2.88-5.74-4.39-12.64-9.77-25.82-20.43-25.82-20.43L209,354.08l25.12,21.31,5.52,4.67s23-11.76,26-12.44S274.59,369.35,273.8,371.48Z"/>
              <path class="cls-1" d="M202.3,401.44c2.21,1.73,4.5,3.5,6.75,5.25,1.95,1.51,3.87,3,5.73,4.4,8.67,6.55,16,11.76,17,11.41,2.63-.9,41.24-48.89,42-51s-5.23-4.52-8.21-3.86-26,12.45-26,12.45l-5.52-4.68-5.6-4.76Z"/>
            </g>
            <g>
              <path class="cls-5" d="M274.26,371.26c-.81,2.16-40.31,50.8-43,51.7-1.23.42-11.93-7.55-23-16.19l25.61-31.72,5.58,4.78s23.46-11.86,26.5-12.53S275.08,369.1,274.26,371.26Z"/>
              <g>
                <g>
                  <path class="cls-6" d="M271.75,370.38c-6.82,8-33.58,40.86-39.71,49.28,0,.07,0,.1.05,0,6.93-7.77,33.42-40.86,39.8-49.22C272,370.31,271.9,370.21,271.75,370.38Z"/>
                  <path class="cls-6" d="M238.56,377.21c-3.21,2.72-5.9,7.05-5.61,11.36,0,.16.25.14.3,0a59.09,59.09,0,0,1,5.7-11A.26.26,0,0,0,238.56,377.21Z"/>
                  <path class="cls-6" d="M241.83,376c-3.2,2.72-5.9,7.05-5.6,11.35,0,.17.25.15.3,0a57.92,57.92,0,0,1,5.7-11A.27.27,0,0,0,241.83,376Z"/>
                  <path class="cls-6" d="M245.11,374.85c-3.21,2.72-5.9,7-5.6,11.35,0,.17.24.15.3,0a58.15,58.15,0,0,1,5.69-11A.26.26,0,0,0,245.11,374.85Z"/>
                  <path class="cls-6" d="M248.39,373.66c-3.21,2.73-5.9,7-5.61,11.36,0,.17.25.15.3,0a57.9,57.9,0,0,1,5.7-11A.27.27,0,0,0,248.39,373.66Z"/>
                </g>
                <g>
                  <path class="cls-6" d="M236,365.26c-2.76-.15-3.89,2.83-3.85,5.09a22.05,22.05,0,0,0,3.34,10.91.1.1,0,0,0,.17,0,.51.51,0,0,0,.81-.17c1.17-3.45,2.85-7,2.93-10.69C239.4,368.25,238.56,365.4,236,365.26Zm1.18,10.25c-.53,1.71-1.15,3.38-1.62,5.11a64.32,64.32,0,0,1-1.81-6.42,24.27,24.27,0,0,1-.46-3.19c-.09-1.66,1.13-6.94,4.19-3.51C239.12,369.38,237.77,373.47,237.13,375.51Z"/>
                  <path class="cls-6" d="M228,388.73c3.27-1.73,5.68-4.82,8.24-7.41a.51.51,0,0,0-.2-.8c0-.07,0-.14-.1-.15a22.12,22.12,0,0,0-11.25,1.91c-2,1-4.19,3.32-2.82,5.72S226.07,389.74,228,388.73Zm-3.47-.41c-4.43-1.2-.26-4.66,1.27-5.32a23.36,23.36,0,0,1,3.06-1,66.17,66.17,0,0,1,6.54-1.26c-1.33,1.2-2.55,2.5-3.84,3.74C230,385.94,227,389,224.51,388.32Z"/>
                </g>
              </g>
            </g>
          </g>
          <g>
            <path class="cls-9" d="M232.73,370.46,205.63,407,114.2,343.57l-8.82-6.12s-2.49,1.68-6.25,3.76c-5.22,2.88-12.87,6.54-19.64,7.54-11.35,1.67-30.3,1.49-39.86-11.3-8.06-10.77-3.69-24.82-3.69-24.82l12.47-5.36S77.9,282.7,97,282c8.12-.32,19.93,5.83,30.88,12.25S232.73,370.46,232.73,370.46Z"/>
            <path class="cls-6" d="M105.38,337.45s-2.49,1.68-6.25,3.76c-6.64-7.95-20.71-22.4-21.14-22.91Z"/>
            <path class="cls-6" d="M59.21,299.05c-1.76,1.22-3.46,2.52-5.2,3.78s-3.48,2.4-5.11,3.75-3.22,2.84-4.78,4.31c-.75.72-1.49,1.44-2.22,2.18a19.2,19.2,0,0,0-2.12,2.3c-.06.08,0,.17.13.12a25.36,25.36,0,0,0,2.36-1.92l2.46-2.1c1.59-1.34,3.2-2.65,4.78-4s3-2.81,4.59-4.17,3.42-2.81,5.15-4.18C59.28,299.08,59.25,299,59.21,299.05Z"/>
            <path class="cls-6" d="M226.36,369.15c-1.76,1.9-3.38,3.94-5,5.94s-3.28,4-4.91,6.06c-3.25,4.06-6.53,8.1-9.72,12.2-1.75,2.26-3.48,4.53-5.12,6.88-.07.1.1.22.18.13,3.5-3.85,6.69-7.95,9.94-12s6.48-8.14,9.67-12.25c1.74-2.25,3.54-4.49,5.14-6.85C226.59,369.17,226.44,369.07,226.36,369.15Z"/>
            <path class="cls-6" d="M151.33,369.52c-4.55-3.58-9.27-7-14-10.33s-9.39-6.7-14.15-9.95c-1.37-.93-2.75-1.84-4.12-2.76s-2.81-1.76-4.16-2.7c-.08-.06-.15.07-.07.13,1.24.88,2.41,1.88,3.62,2.8s2.31,1.77,3.48,2.63c2.29,1.69,4.6,3.35,6.9,5q7,5.07,14.13,10c2.7,1.85,5.39,3.71,8.14,5.47C151.29,369.9,151.48,369.64,151.33,369.52Z"/>
            <path class="cls-6" d="M180.57,331.8c-4.21-3.48-8.71-6.62-13.12-9.84s-8.89-6.54-13.36-9.78l-13.32-9.62c-4.3-3.11-8.58-6.27-13.13-9q-3.73-2.26-7.66-4.16a49.47,49.47,0,0,0-7.92-3.23c-.08,0-.12.09,0,.13,2.24,1.25,4.59,2.31,6.86,3.51s4.45,2.45,6.62,3.77c4.51,2.73,8.77,5.84,13,8.92,8.89,6.39,17.76,12.81,26.71,19.11,5,3.53,9.92,7.25,15.12,10.49C180.53,332.17,180.72,331.92,180.57,331.8Z"/>
          </g>
        </g>
      </g>
    </g>
  </g>
</svg>
