<svg xmlns="http://www.w3.org/2000/svg" width="2189.08" height="1625.79" viewBox="0 0 2189.08 1625.79">
  <defs>
    <style>
      .cls-1 {
        isolation: isolate;
      }

      .cls-2 {
        fill: #f4a640;
      }

      .cls-3 {
        fill: #adcfd8;
      }

      .cls-13, .cls-4 {
        fill: #55769f;
      }

      .cls-11, .cls-5 {
        fill: #daeef7;
      }

      .cls-6 {
        fill: #feb546;
      }

      .cls-7 {
        fill: #ff5b7e;
      }

      .cls-8 {
        fill: #e03268;
      }

      .cls-9 {
        fill: #02ccc0;
      }

      .cls-10 {
        fill: #06bfad;
      }

      .cls-11, .cls-29 {
        mix-blend-mode: multiply;
      }

      .cls-12 {
        fill: #284c7a;
      }

      .cls-13 {
        opacity: 0.5;
      }

      .cls-14 {
        fill: #c4dfe8;
      }

      .cls-15 {
        fill: #ffc0bb;
      }

      .cls-16 {
        fill: #f50;
      }

      .cls-17 {
        fill: #07085b;
      }

      .cls-18, .cls-29 {
        fill: #f99893;
      }

      .cls-19 {
        fill: #333;
      }

      .cls-20 {
        fill: #fc8d84;
        opacity: 0.6;
      }

      .cls-21 {
        fill: #050645;
      }

      .cls-22 {
        fill: #fff;
      }

      .cls-23 {
        fill: #070852;
      }

      .cls-24 {
        fill: #10116b;
      }

      .cls-25 {
        fill: #ededed;
      }

      .cls-26 {
        fill: #26426e;
      }

      .cls-27 {
        fill: #e0e0e0;
      }

      .cls-28 {
        fill: #3a5782;
      }

      .cls-29 {
        opacity: 0.3;
      }

      .cls-30 {
        fill: #f5577a;
      }

      .cls-31 {
        fill: #de4b6c;
      }
    </style>
  </defs>
  <title>Asset 1</title>
  <g class="cls-1">
    <g id="Layer_2" data-name="Layer 2">
      <g id="Layer_1-2" data-name="Layer 1">
        <g>
          <g>
            <path class="cls-2" d="M1049.17,1231.24,791.56,1334.7l-318.89-794,217.76-87.45a43,43,0,0,1,55.86,23.85Z"/>
            <g>
              <rect class="cls-3" x="520.91" y="546.49" width="500.95" height="704.33" transform="translate(-145.02 148.45) rotate(-10.05)"/>
              <rect class="cls-4" x="610.4" y="620.74" width="223.7" height="5.02" transform="translate(-97.7 135.64) rotate(-10.05)"/>
              <rect class="cls-4" x="561.18" y="608.2" width="317.69" height="5.02" transform="translate(-95.55 135.06) rotate(-10.05)"/>
              <rect class="cls-4" x="538.74" y="672.67" width="385.43" height="5.02" transform="translate(-106.63 138.05) rotate(-10.05)"/>
              <rect class="cls-4" x="542.96" y="696.45" width="385.43" height="5.02" transform="translate(-110.71 139.15) rotate(-10.05)"/>
              <rect class="cls-4" x="551.39" y="744.02" width="385.43" height="5.02" transform="translate(-118.89 141.35) rotate(-10.05)"/>
              <rect class="cls-4" x="555.61" y="767.8" width="385.43" height="5.02" transform="translate(-122.97 142.45) rotate(-10.05)"/>
              <rect class="cls-4" x="559.82" y="791.59" width="385.43" height="5.02" transform="translate(-127.06 143.55) rotate(-10.05)"/>
              <rect class="cls-4" x="578.37" y="896.2" width="385.43" height="5.02" transform="translate(-145.04 148.39) rotate(-10.05)"/>
              <rect class="cls-4" x="582.74" y="920.86" width="385.43" height="5.02" transform="translate(-149.28 149.54) rotate(-10.05)"/>
              <rect class="cls-4" x="587.11" y="945.53" width="385.43" height="5.02" transform="translate(-153.51 150.68) rotate(-10.05)"/>
              <rect class="cls-4" x="591.48" y="970.19" width="385.43" height="5.02" transform="translate(-157.75 151.82) rotate(-10.05)"/>
              <rect class="cls-4" x="595.86" y="994.85" width="385.43" height="5.02" transform="translate(-161.99 152.96) rotate(-10.05)"/>
              <rect class="cls-4" x="600.23" y="1019.52" width="385.43" height="5.02" transform="translate(-166.23 154.11) rotate(-10.05)"/>
              <rect class="cls-4" x="604.6" y="1044.18" width="385.43" height="5.02" transform="translate(-170.46 155.24) rotate(-10.05)"/>
            </g>
            <g>
              <rect class="cls-5" x="482.38" y="543.01" width="500.95" height="704.33" transform="translate(-203.7 215.99) rotate(-14.74)"/>
              <rect class="cls-4" x="549.51" y="622.2" width="223.7" height="5.02" transform="translate(-137.22 188.89) rotate(-14.74)"/>
              <rect class="cls-4" x="499.27" y="609.89" width="317.69" height="5.02" transform="translate(-134.19 187.66) rotate(-14.74)"/>
              <rect class="cls-4" x="482.07" y="673.2" width="385.43" height="5.02" transform="translate(-149.75 193.99) rotate(-14.74)"/>
              <rect class="cls-4" x="488.21" y="696.56" width="385.43" height="5.02" transform="translate(-155.5 196.32) rotate(-14.74)"/>
              <rect class="cls-4" x="500.51" y="743.28" width="385.43" height="5.02" transform="translate(-166.98 200.99) rotate(-14.74)"/>
              <rect class="cls-4" x="506.66" y="766.64" width="385.43" height="5.02" transform="translate(-172.72 203.32) rotate(-14.74)"/>
              <rect class="cls-4" x="512.8" y="790" width="385.43" height="5.02" transform="translate(-178.47 205.66) rotate(-14.74)"/>
              <rect class="cls-4" x="539.84" y="892.74" width="385.43" height="5.02" transform="translate(-203.73 215.93) rotate(-14.74)"/>
              <rect class="cls-4" x="546.22" y="916.96" width="385.43" height="5.02" transform="translate(-209.68 218.34) rotate(-14.74)"/>
              <rect class="cls-4" x="552.59" y="941.19" width="385.43" height="5.02" transform="translate(-215.64 220.76) rotate(-14.74)"/>
              <rect class="cls-4" x="558.97" y="965.41" width="385.43" height="5.02" transform="translate(-221.59 223.18) rotate(-14.74)"/>
              <rect class="cls-4" x="565.34" y="989.63" width="385.43" height="5.02" transform="translate(-227.55 225.6) rotate(-14.74)"/>
              <rect class="cls-4" x="571.72" y="1013.86" width="385.43" height="5.02" transform="matrix(0.97, -0.25, 0.25, 0.97, -233.5, 228.02)"/>
              <rect class="cls-4" x="578.09" y="1038.08" width="385.43" height="5.02" transform="translate(-239.46 230.44) rotate(-14.74)"/>
            </g>
            <path class="cls-6" d="M951.42,1270.5,432.79,1478.79,130.3,725.59,566.11,456.74a46.41,46.41,0,0,1,67.42,22.2Z"/>
          </g>
          <g>
            <path class="cls-7" d="M265.43,1356.9l-74-1.34c-25.68-46.56-44.53-87-44.53-87,83.56-19.26,154.08-11.35,212.84,11.24l32.37,78.65,6.93-60.56c145.62,78.57,205.61,244.92,205.61,244.92S347.32,1515.35,292.77,1490c-21.07-9.79-47.61-45-72.26-84.63C240.23,1386.58,265.43,1356.9,265.43,1356.9Z"/>
            <path class="cls-8" d="M146.91,1268.52s330.39,139,457.75,274.25c0,0-257.34-27.42-311.89-52.79-21.07-9.79-47.61-45-72.26-84.63,19.72-18.77,44.92-48.45,44.92-48.45l-74-1.34C165.76,1309,146.91,1268.52,146.91,1268.52Z"/>
            <path class="cls-7" d="M157.45,1490.74c44.49-27.09,89.37-41.58,132.8-47.37,12.73,15.83,28.36,34.45,28.36,34.45l1.65-37.11C486.91,1433.12,625,1544.78,625,1544.78c-96.53,60.83-178.86,77.61-246.3,72.17-4-13-9.65-32.35-9.65-32.35l-11.92,29.81a290.8,290.8,0,0,1-85.5-27.46c6.31-15.46,13-33.14,13-33.14l-35.92,20.4C188.48,1537.41,157.45,1490.74,157.45,1490.74Z"/>
            <path class="cls-8" d="M378.7,1617c-4-13-9.65-32.35-9.65-32.35l-11.92,29.81a290.8,290.8,0,0,1-85.5-27.46c6.31-15.46,13-33.14,13-33.14l-35.92,20.4c-60.19-36.8-91.22-83.47-91.22-83.47,194.17-22.43,467.55,54,467.55,54C528.47,1605.61,446.14,1622.39,378.7,1617Z"/>
          </g>
          <path class="cls-9" d="M1129.83,489.69l59.64-43.8c-5.9-52.84-13.87-96.78-13.87-96.78-79.35,32.51-132.38,79.67-167.32,132l19,82.91L986.62,518.6C913.07,666.81,960.1,837.28,960.1,837.28s194.32-170.93,224.22-223.13c11.55-20.16,12.88-64.27,10.16-110.82C1167.53,499.38,1129.83,489.69,1129.83,489.69Z"/>
          <path class="cls-10" d="M1175.6,349.11S986.06,653.36,960.1,837.28c0,0,194.32-170.93,224.22-223.13,11.55-20.16,12.88-64.27,10.16-110.82-27-3.95-64.65-13.64-64.65-13.64l59.64-43.8C1183.57,393.05,1175.6,349.11,1175.6,349.11Z"/>
          <path class="cls-9" d="M1295.26,536.66c-52,3.56-97,17.63-135.79,38-1.26,20.28-3.28,44.5-3.28,44.5l-22.76-29.35C993,679.77,944.65,850.66,944.65,850.66c113.94-6,190.85-39.86,242.79-83.23-4.23-12.91-10.79-32-10.79-32l26.94,17.47a290.93,290.93,0,0,0,54-71.78c-14.08-9-29.71-19.58-29.71-19.58l41.11-4.07C1296.86,592.68,1295.26,536.66,1295.26,536.66Z"/>
          <path class="cls-10" d="M1187.44,767.43c-4.23-12.91-10.79-32-10.79-32l26.94,17.47a290.93,290.93,0,0,0,54-71.78c-14.08-9-29.71-19.58-29.71-19.58l41.11-4.07c27.91-64.8,26.31-120.82,26.31-120.82-171.51,93.76-350.61,314-350.61,314C1058.59,844.63,1135.5,810.8,1187.44,767.43Z"/>
          <g>
            <path class="cls-8" d="M1772,753.4h35.46a37.06,37.06,0,0,0-21-6.35H898.05c-46.49,0-84.17,33.41-84.17,74.61v47.4c0,41.2,37.68,74.61,84.17,74.61l878.55-.27Z"/>
            <path class="cls-6" d="M888.41,869.06v-47.4c0-41.2,37.68-74.61,84.17-74.61H953.5c-46.49,0-84.17,33.41-84.17,74.61v47.4c0,41.2,37.68,74.61,84.17,74.61h18.83C926,943.54,888.41,910.19,888.41,869.06Z"/>
            <path class="cls-6" d="M1096.49,869.06v-47.4c0-41.2,37.69-74.61,84.17-74.61h-19.08c-46.48,0-84.17,33.41-84.17,74.61v47.4c0,41.2,37.69,74.61,84.17,74.61h18.83C1134,943.54,1096.49,910.19,1096.49,869.06Z"/>
            <path class="cls-7" d="M1267.61,747.23c-44.45,0-80.49,31.94-80.49,71.35v53.56c0,39.4,36,71.35,80.49,71.35h553.11v-12h-2.29l-140.61-11.8-28.42-98.84s54.85-54.61,58.43-56,110.6-5.68,110.6-5.68l2.29,0V747.23Z"/>
            <path class="cls-5" d="M1784.85,845c0-57.79,33.68-85.8,33.68-85.8H1278.94c-40.83,0-73.93,29.34-73.93,65.54V866c0,36.2,33.1,65.54,73.93,65.54h539.59S1784.85,917.77,1784.85,845Z"/>
            <path class="cls-11" d="M1205,824.75V866a59,59,0,0,0,2.15,15.72c18.2-39.47,53.08-77.49,119.48-89.71,155-28.54,491.89-32.77,491.89-32.77H1278.94C1238.11,759.21,1205,788.55,1205,824.75Z"/>
          </g>
          <g>
            <path class="cls-12" d="M1757.4,1146.38h40.14a39.19,39.19,0,0,0-23.72-7.94H768.22c-52.61,0-95.26,41.81-95.26,93.39v59.32c0,51.58,42.65,93.39,95.26,93.39l994.35-.33Z"/>
            <path class="cls-4" d="M1186.5,1138.66c-50.31,0-91.1,40-91.1,89.31v67c0,49.32,40.79,89.31,91.1,89.31h626v-15h-2.59l-159.14-14.77-32.17-123.71s62.08-68.36,66.13-70.13,125.18-7.11,125.18-7.11l2.59,0v-14.91Z"/>
            <path class="cls-5" d="M1771.91,1261.05c0-72.33,38.12-107.4,38.12-107.4H1199.32c-46.21,0-83.68,36.73-83.68,82v51.6c0,45.3,37.47,82,83.68,82H1810S1771.91,1352.12,1771.91,1261.05Z"/>
            <path class="cls-11" d="M1115.64,1235.69v51.6a80.78,80.78,0,0,0,2.44,19.67c20.6-49.4,60.08-97,135.23-112.29,175.45-35.72,556.72-41,556.72-41H1199.32C1153.11,1153.65,1115.64,1190.38,1115.64,1235.69Z"/>
          </g>
          <g>
            <path class="cls-9" d="M639.82,949.46H599.66a46.26,46.26,0,0,1,23.73-6.3h1006c52.63,0,95.3,33.18,95.3,74.11v47.07c0,40.92-42.67,74.1-95.3,74.1l-994.74-.26Z"/>
            <path class="cls-10" d="M1210.94,943.34c50.33,0,91.14,31.73,91.14,70.87v53.19c0,39.14-40.81,70.86-91.14,70.86H584.69v-11.89h2.58l159.21-11.73,32.18-98.16s-62.11-54.24-66.16-55.64-125.23-5.65-125.23-5.65l-2.58,0V943.34Z"/>
            <path class="cls-5" d="M625.3,1040.45c0-57.39-38.14-85.21-38.14-85.21h610.95c46.23,0,83.71,29.14,83.71,65.09v40.94c0,36-37.48,65.1-83.71,65.1H587.16S625.3,1112.72,625.3,1040.45Z"/>
            <path class="cls-11" d="M1281.82,1020.33v40.94a51.43,51.43,0,0,1-2.44,15.62c-20.6-39.21-60.1-77-135.27-89.11-175.53-28.34-556.95-32.54-556.95-32.54h610.95C1244.34,955.24,1281.82,984.38,1281.82,1020.33Z"/>
            <path class="cls-13" d="M1540.39,1064.34v-47.07c0-40.93-42.67-74.11-95.3-74.11h95.52c52.64,0,95.3,33.18,95.3,74.11v47.07c0,40.92-42.66,74.1-95.3,74.1l-94.26,0C1498.4,1137.88,1540.39,1104.93,1540.39,1064.34Z"/>
          </g>
          <path class="cls-6" d="M563.87,1392.08H520.58a48.44,48.44,0,0,1,25.58-7H1630.64c56.74,0,102.73,37.07,102.73,82.79v52.59c0,45.73-46,82.8-102.73,82.8l-1072.35-.3Z"/>
          <path class="cls-2" d="M1179.55,1385.23c54.26,0,98.25,35.45,98.25,79.18v59.44c0,43.72-44,79.17-98.25,79.17H504.44v-13.29h2.79l171.62-13.1L713.54,1467s-66.95-60.61-71.32-62.17-135-6.31-135-6.31l-2.79,0v-13.23Z"/>
          <path class="cls-5" d="M548.22,1493.74c0-64.13-41.12-95.21-41.12-95.21h658.62c49.84,0,90.24,32.56,90.24,72.72V1517c0,40.17-40.4,72.73-90.24,72.73H507.1S548.22,1574.48,548.22,1493.74Z"/>
          <path class="cls-11" d="M1256,1471.25V1517a59.48,59.48,0,0,1-2.63,17.45c-22.21-43.8-64.78-86-145.83-99.56-189.21-31.67-600.4-36.36-600.4-36.36h658.62C1215.56,1398.53,1256,1431.09,1256,1471.25Z"/>
          <rect class="cls-14" x="233.4" y="1601.71" width="1848.58" height="24.08" rx="9.79"/>
          <polygon class="cls-2" points="222.19 808.75 575.29 606.78 623.02 701.32 261.71 892.47 222.19 808.75"/>
          <path class="cls-9" d="M887.59,233.47s-2.78,27.46-24.45,29.36c21.67,1.9,24.45,29.36,24.45,29.36s2.79-27.46,24.46-29.36C890.38,260.93,887.59,233.47,887.59,233.47Z"/>
          <path class="cls-6" d="M513.17,22.5s-3.71,36.58-32.58,39.11c28.87,2.53,32.58,39.11,32.58,39.11s3.71-36.58,32.57-39.11C516.88,59.08,513.17,22.5,513.17,22.5Z"/>
          <path class="cls-7" d="M361.94,349.67s-2.49,24.56-21.88,26.26c19.39,1.7,21.88,26.26,21.88,26.26s2.49-24.56,21.87-26.26C364.43,374.23,361.94,349.67,361.94,349.67Z"/>
          <path class="cls-7" d="M2079.4,935.71s-3.71,36.58-32.57,39.11c28.86,2.53,32.57,39.11,32.57,39.11s3.71-36.58,32.58-39.11C2083.11,972.29,2079.4,935.71,2079.4,935.71Z"/>
          <path class="cls-9" d="M32.58,613.63S28.87,650.21,0,652.74c28.87,2.53,32.58,39.11,32.58,39.11s3.71-36.58,32.57-39.11C36.29,650.21,32.58,613.63,32.58,613.63Z"/>
          <path class="cls-9" d="M2156.51,574.52s-3.71,36.58-32.58,39.11c28.87,2.53,32.58,39.11,32.58,39.11s3.71-36.58,32.57-39.11C2160.22,611.1,2156.51,574.52,2156.51,574.52Z"/>
          <path class="cls-7" d="M1256,0s-3.71,36.58-32.57,39.11c28.86,2.53,32.57,39.11,32.57,39.11s3.71-36.58,32.58-39.11C1259.67,36.58,1256,0,1256,0Z"/>
          <path class="cls-6" d="M1874.36,305.48s-2,23.1-17.7,24.7c15.69,1.6,17.7,24.69,17.7,24.69s2-23.09,17.71-24.69C1876.38,328.58,1874.36,305.48,1874.36,305.48Z"/>
          <g>
            <path class="cls-15" d="M607.71,1431.13,559,1433.6l-6.16,144.62-24.94,12,1.2,5.27,9.27,2.19s30-.52,30.89-.52,7.07-6.82,7.07-6.82l-.93-1.19,5-3.38Z"/>
            <path class="cls-15" d="M739.76,1590.23s-24.34-12.24-25-12L720.33,1431l-60.43.17,27.36,154.65,3,2c-.75,2.57-1.34,4.8-1.48,5.5-.39,1.93,10.29,2.06,14,2.7s14.55,1.8,21.5,3.73S740,1596,740,1596Z"/>
            <path class="cls-16" d="M741.39,1033.64c-7-18.3-13.88-11.05-26.58-33.18a48.74,48.74,0,0,1-4.5-12.27,62,62,0,0,0-19.41-32.45c-29.78-25.71-63.47-14.3-63.47-14.3s8.74,49.71,10.42,59.79c-7.45,10.13-15,20.47-15,20.47s-15.67,81.71,8.92,88.6,29.07-4.17,41.09-9.93,23.73,10,41.68-1c13.71-8.36,6.74-29.2,14-33.11S749,1053.39,741.39,1033.64Z"/>
            <path class="cls-16" d="M614.68,982.67c-.44-.19-11.71-6.55-22.27-12.52l65.57-73s-19.87-3.85-21.08-4-29.7,8.72-29.7,8.72l-29.38,8c-22.42,81.82-50.34,96.63-50.35,96.64a31.93,31.93,0,0,0-9.79,10.44c-11.12,18,.13,29.27,6.53,34.45s-4.3,24.38,7.62,35.14c15.6,14.08,30,.8,40.77,8.69s13.09,19.58,38.54,17.37,25.19-85.42,25.19-85.42S615.5,983,614.68,982.67Z"/>
            <path class="cls-7" d="M726,1131.81s21.64,103.31,15.36,114.48-88.65,14.65-88.65,14.65l-3.49-132.62,31.41-47.47Z"/>
            <path class="cls-17" d="M699.87,1251.4l-15.39-42.17s-50.66-18.45-53.88-18.68-46.1,18.68-46.1,18.68-13.11,26.53-15.67,31.3c-1.42,2.64,1.85,18.88,5,32.84l-18.16.85-12.08,266.63s26.16,14.08,54.33,2L621.12,1310l20.12-3,30.18,230.87s24.15,18.11,58.36,3l-22.67-256.94A127.56,127.56,0,0,0,699.87,1251.4Z"/>
            <path class="cls-15" d="M601.35,1049.49s22.47-4.71,64.28-1.74-19.34,26.52-19.34,26.52-21.46-.7-22.38-.87S601.35,1049.49,601.35,1049.49Z"/>
            <rect class="cls-15" x="617.4" y="1025.87" width="37.12" height="65.15"/>
            <path class="cls-18" d="M654.46,1037v-22.22H617.4v18.9C625.38,1038,637.19,1040.44,654.46,1037Z"/>
            <path class="cls-15" d="M706.46,953.34a12.66,12.66,0,0,0-11.4.45,60.57,60.57,0,1,0-121.14,0,12.66,12.66,0,0,0-11.4-.45c-6.81,3.36-8.93,13-4.73,21.5s13.13,12.69,19.93,9.33a11.15,11.15,0,0,0,2.56-1.75c3.9,27.75,27.05,48.55,54.21,48.17,27.16.38,50.31-20.42,54.21-48.17a11.31,11.31,0,0,0,2.55,1.75c6.81,3.36,15.74-.82,19.94-9.33S713.27,956.7,706.46,953.34Z"/>
            <path class="cls-19" d="M619.18,965.72a5.1,5.1,0,1,1-5.37-4.81A5.09,5.09,0,0,1,619.18,965.72Z"/>
            <path class="cls-19" d="M663.07,966.19a5.1,5.1,0,1,1-5.37-4.81A5.09,5.09,0,0,1,663.07,966.19Z"/>
            <path class="cls-16" d="M624.78,955.29a47.87,47.87,0,0,0-7.4-2,25.24,25.24,0,0,0-7.13-.29,23.23,23.23,0,0,0-6.88,1.75l-.86.32c-.29.12-.55.29-.84.41l-1.7.83c-1.15.58-2.21,1.3-3.48,1.87a22.19,22.19,0,0,1,2.36-3.31,18.75,18.75,0,0,1,3.13-2.69,16.55,16.55,0,0,1,7.91-2.88,17.35,17.35,0,0,1,8.31,1.19A16,16,0,0,1,624.78,955.29Z"/>
            <path class="cls-16" d="M645.33,955.21a16,16,0,0,1,6.54-4.85,17.32,17.32,0,0,1,8.3-1.26,16.59,16.59,0,0,1,7.93,2.82,18.85,18.85,0,0,1,3.15,2.67,22.16,22.16,0,0,1,2.38,3.29c-1.27-.56-2.34-1.28-3.49-1.84l-1.71-.82c-.29-.12-.55-.29-.84-.4l-.86-.32a23.57,23.57,0,0,0-6.9-1.7,25.57,25.57,0,0,0-7.12.34A47.76,47.76,0,0,0,645.33,955.21Z"/>
            <path class="cls-18" d="M637,958.75a28.39,28.39,0,0,0,.44,8,22.13,22.13,0,0,0,1.12,4,10.57,10.57,0,0,0,2.38,3.74c1.36,1,1.95,1.36,2.34,2.3a3.6,3.6,0,0,1-.21,2.9c-1,2.06-3.14,3.6-5.53,4.74a9.09,9.09,0,0,0,7.26-3.75,5.48,5.48,0,0,0,.75-4.68,6.07,6.07,0,0,0-2.61-3.18,8.4,8.4,0,0,1-2.17-3,34.11,34.11,0,0,1-1.42-3.5C638.53,963.81,637.8,961.3,637,958.75Z"/>
            <path class="cls-18" d="M620.3,990.71a40,40,0,0,0,9,4.61,30.21,30.21,0,0,0,9.83,1.79,26,26,0,0,0,9.76-1.91,36.35,36.35,0,0,0,8.63-5.29,31.33,31.33,0,0,1-3.83,3.44,27.62,27.62,0,0,1-4.43,2.68,24.6,24.6,0,0,1-4.93,1.71,26,26,0,0,1-5.2.56A26.89,26.89,0,0,1,629,996.17,29.33,29.33,0,0,1,620.3,990.71Z"/>
            <path class="cls-9" d="M708.14,1062.51c-20.11-19.52-47.92-15.38-47.92-15.38a43.51,43.51,0,0,1-9.3,7.21,38,38,0,0,1-16.1,4.35h-.66a38,38,0,0,1-16.1-4.35,43.51,43.51,0,0,1-9.3-7.21S581,1043,560.84,1062.51s-40.23,62.59-40.23,62.59,25.44,23.19,49.69,26.15c0,0,11.83,54.43,14.2,58a127.48,127.48,0,0,0,30,8.73,103.7,103.7,0,0,0,18.9,1.77h2.26a103.7,103.7,0,0,0,18.9-1.77,127.48,127.48,0,0,0,30-8.73c2.37-3.55,14.2-58,14.2-58,24.25-3,49.69-26.15,49.69-26.15S728.26,1082,708.14,1062.51Z"/>
            <g>
              <path class="cls-8" d="M636.66,1194.55s7.47-1.24,11.59,4.24l-.29,14.14-9.13,4.25s-11.31-9.63-10.46-9.87S636.66,1194.55,636.66,1194.55Z"/>
              <polygon class="cls-8" points="659.91 1286.86 539.61 1321.66 527.96 1233.6 648.25 1198.79 659.91 1286.86"/>
              <polygon class="cls-5" points="529.68 1307.49 540.24 1316.41 655.38 1283.41 645.03 1200.42 636.91 1197.01 529.68 1307.49"/>
              <polygon class="cls-11" points="655.38 1283.41 647.17 1276.27 632.15 1259.77 633.06 1214.36 636.91 1197.01 645.07 1200.28 655.38 1283.41"/>
              <polygon class="cls-7" points="647.17 1276.27 526.87 1311.07 516.36 1229.35 636.66 1194.55 647.17 1276.27"/>
            </g>
            <path class="cls-5" d="M588.14,1104a110.32,110.32,0,0,0-7.68,10.58,80.18,80.18,0,0,0-6.1,11.41,54.55,54.55,0,0,0-3.75,12.29,45.6,45.6,0,0,0-.31,13,32.09,32.09,0,0,1-1.28-13.16,44,44,0,0,1,3.44-12.9,58.57,58.57,0,0,1,6.68-11.5A54,54,0,0,1,588.14,1104Z"/>
            <path class="cls-15" d="M563.18,1252.55c-21.18-35.85-11.38-79.48-3-103.6-16.62-5.36-32-17.46-37.47-22-33.82,76.33,23.44,141.65,23.44,141.65l.12-.11c1.09,2.46,1.88,4.66,1.88,4.66,13.5,24.4,14.09,24,15.06,23.67s-1.7-12-.51-11.92,9.72,14,10.34,12.7-5.67-15.18-4.75-15.42,8.94,13.38,10.71,12.21-7.53-15.79-5.75-16.15,10.93,14.85,12.36,13.52c1.21-1.12-8.6-18.39-11.75-23.85a1,1,0,0,1,.95-1.54c12.53.73,13.54.05,13.31-1.34C587.94,1264,572.9,1257,563.18,1252.55Z"/>
            <path class="cls-8" d="M704.88,1051c-26,93.44,5.38,121,5.51,121.73l-4.69,21.74s-63.94-41.58-23.41-152.34a5.55,5.55,0,0,1,7.54-3.35l12.13,5.62A5.55,5.55,0,0,1,704.88,1051Z"/>
            <path class="cls-15" d="M761.56,1279.14s-.82-2.07-1.6-4.51v0h0l-1.23-9c-.76-20.54-4.17-93.38-15.38-136.24-8.54,6.78-26.68,19.59-44.28,21.89,11,23.07,34.13,76.24,38.14,124.58-4.07,9.22-9.56,22-9.09,22.73.71,1.13,1.86,1,10.28-7.41a1,1,0,0,1,1.64.49c1.2,5.86,5.1,24.26,6.65,24.3,1.86,0-1.22-16.5.27-17.36s4.09,15.34,6.08,15.06-.88-15-.08-15.38,5,13.38,6.32,13.92-1.48-14.73-.65-15.5,6.22,9.13,7.13,8.77S767.32,1304.93,761.56,1279.14Z"/>
            <path class="cls-16" d="M563.24,953s-3.75-69.48,73.66-74.07c0,0-2.41,68.25-63,74.87l-4.67-9.07Z"/>
            <path class="cls-16" d="M636.9,878.92s62.8-3.51,66.12,73.38a16.89,16.89,0,0,0-8,1.49S645.33,941.36,633,893.16Z"/>
            <path class="cls-17" d="M549,1595.51c-12.62,1.26-18.57-1.48-21.14-5.28l-8.55,5.58a4,4,0,0,0,2.16,7.41H577a3.55,3.55,0,0,0,3.55-3.55v-15C577,1588.34,568.58,1593.54,549,1595.51Z"/>
            <path class="cls-17" d="M718.62,1595.51c12.62,1.26,18.58-1.48,21.14-5.28l8.55,5.58a4,4,0,0,1-2.16,7.41H690.6a3.55,3.55,0,0,1-3.55-3.55v-15C690.63,1588.34,699,1593.54,718.62,1595.51Z"/>
          </g>
          <g>
            <g>
              <path class="cls-11" d="M1880.78,1098.19l64.19,5.16-20.72,51.92-32.4-2.6L1878.36,1196c-3.29-1.5-5.71-2.64-6.2-3-1-.65-4.56-22.13-7.71-42.41Z"/>
              <path class="cls-8" d="M1917.41,1575.7v22.63a3.38,3.38,0,0,0,3.38,3.38h52.82a3.83,3.83,0,0,0,2.06-7.06l-29.64-19S1934.41,1584.22,1917.41,1575.7Z"/>
              <path class="cls-15" d="M1813.71,616.56a1,1,0,0,1-1.41-1.18c1.32-6.28,5.36-26.08,3.84-26.78-1.81-.83-5.85,16.77-7.69,17s2.54-16.86.46-17.43-5.54,15.12-6.51,15.18.76-15.33-.26-16.41-4.85,15.14-6,15.55-2.23-11.66-3.27-11.69-1.74-.22-7.1,27.64c0,0-.31,10.21-2.12,12.61l4,8.2,12.46.42s27.08-24.5,26.86-26S1825.59,611.9,1813.71,616.56Z"/>
              <path class="cls-15" d="M1942,622.73a1,1,0,0,0,1.79-.41c1.68-6.19,7.11-25.66,8.79-25.59,2,.09-2.44,17.6-.9,18.62s5.42-16.16,7.54-15.72-2,16-1.13,16.47,6.32-14,7.71-14.48-2.58,15.69-1.75,16.57,7.29-9.37,8.24-8.91,1.65.59-6.29,27.83c0,0-4.37,9.24-3.85,12.19l-7.32,5.47-11.28-5.31s-12.94-34.15-12.06-35.37S1933.53,613.17,1942,622.73Z"/>
              <polygon class="cls-15" points="1842.94 845.84 1843.14 893.48 1796.86 886.35 1804.58 832.78 1842.94 845.84"/>
              <path class="cls-20" d="M1801,857.44l3.55-24.66,38.4,17.58,0,9.4C1833.75,862,1816.43,864.05,1801,857.44Z"/>
              <path class="cls-8" d="M1759.33,1573.18V1598a3.71,3.71,0,0,1-3.71,3.71H1697.5a4.2,4.2,0,0,1-2.25-7.75l32.6-20.78S1740.64,1582.53,1759.33,1573.18Z"/>
              <path class="cls-17" d="M1706.26,1151.53c.11-5.31-13.71,10.34-13.44,6.1,5.42-88.13,177.61-14.24,177.61-14.24l42,30.85,47.45,408.44s-25.76,7.45-42.71,1.36l-105.07-350-12.93-5S1741.73,1189,1706.26,1151.53Z"/>
              <g>
                <path class="cls-10" d="M1692.62,1161.22c0,1-.1,2.09-.14,3.17C1692.52,1163.31,1692.57,1162.26,1692.62,1161.22Z"/>
                <path class="cls-10" d="M1692.48,1164.45c0,1.1-.08,2.24-.12,3.39C1692.4,1166.69,1692.44,1165.55,1692.48,1164.45Z"/>
                <path class="cls-10" d="M1692.35,1168.29c0,1.2-.07,2.43-.1,3.69C1692.28,1170.72,1692.31,1169.49,1692.35,1168.29Z"/>
                <path class="cls-10" d="M1692.82,1157.63c-.06.95-.12,1.94-.17,2.95C1692.7,1159.57,1692.76,1158.58,1692.82,1157.63Z"/>
                <path class="cls-17" d="M1692.84,1137.61c35.47,37.44,106.36,91.45,106.36,91.45l12.93,5-12.93-5-40,353.62s-28.47,5.42-44.74-3.39C1714.51,1579.29,1690.52,1242.69,1692.84,1137.61Z"/>
                <path class="cls-10" d="M1959.91,1582.68a110.73,110.73,0,0,1-23.51,3.69,110.73,110.73,0,0,0,23.51-3.69Z"/>
                <path class="cls-10" d="M1922.17,1585.41c1.15.23,2.31.42,3.49.57C1924.48,1585.83,1923.32,1585.64,1922.17,1585.41Z"/>
                <path class="cls-10" d="M1936.4,1586.37a68.77,68.77,0,0,1-9-.19A68.77,68.77,0,0,0,1936.4,1586.37Z"/>
              </g>
              <path class="cls-21" d="M1912.46,1174.24l6.77,58.29c-17.92,6.94-61.6,14.35-94.51-57.65-10.38-22.7-13-39-11.14-50.78a468,468,0,0,1,56.85,19.29Z"/>
              <path class="cls-5" d="M1754.47,936.3c2,0,31.81-67.59,31.81-67.59,25.51,17.89,60.14,5.47,60.14,5.47s139.34,255,45.89,294.74-181.58-8.61-181.58-8.61-19.88-51.7-19.88-53.69S1752.48,936.3,1754.47,936.3Z"/>
              <path class="cls-4" d="M1936.05,650s6,121-5.3,143.15c-37.61,73.56-84.33,81-84.33,81s-16.07,257.3-2.82,318.93c0,0,44.07,13.59,109-16.9,0,0-49.7-199.48-47-224.66,0,0,79.52-70.91,82.18-154.42s-19.22-157.72-19.22-157.72Z"/>
              <path class="cls-4" d="M1721.66,1183.83s5-95.76,26.84-186.55,37.78-128.57,37.78-128.57c-29.33-32.31-24.45-61.51-21.87-99.41,3-43.74,45.73-131.22,45.73-131.22l-28.83-18.89c-138.18,166-61.63,298.23-61.63,298.23S1668,1100.33,1661,1156A421.36,421.36,0,0,0,1721.66,1183.83Z"/>
              <path class="cls-22" d="M1904.23,951.27a30.8,30.8,0,0,1-5.56-5.28c-5.86-7.07-8.9-15-11-23.93,1.28,3.8,4.67,14.83,11.83,23.23a28.36,28.36,0,0,0,6.46,5.9l-.39.36c0,.16,0,.34,0,.52-1.84.38-5.07.5-10.51-2.46a48.45,48.45,0,0,1-8.84-6.35,63.48,63.48,0,0,0,9.17,5.71C1897.83,950.19,1901.46,951.46,1904.23,951.27Z"/>
              <path class="cls-22" d="M1720.73,916.8A30.63,30.63,0,0,0,1727,911c5.87-6.88,9.08-15,11.83-23.24-2.09,8.85-5.11,16.83-11,23.94a30.88,30.88,0,0,1-5.56,5.28,12.56,12.56,0,0,0,3.89-.46,25.19,25.19,0,0,0,5-1.85,62.2,62.2,0,0,0,9.17-5.7,48.43,48.43,0,0,1-8.84,6.34,26.74,26.74,0,0,1-5.08,2.13,10.77,10.77,0,0,1-5.66.29l-1.06-.29Z"/>
              <polygon class="cls-17" points="1776.56 748.64 1773.76 781.33 1778.93 784.58 1788.48 744.77 1776.56 748.64"/>
              <path class="cls-18" d="M1783.51,778c1.42,7.4-2.23,14.33-8.16,15.46s-11.87-3.94-13.29-11.35,2.23-14.33,8.15-15.46S1782.09,770.55,1783.51,778Z"/>
              <path class="cls-15" d="M1775,808.18a108.22,108.22,0,0,1-.46-27.46c.18-1.79.26-3.58.3-5.37a58.33,58.33,0,1,1,115.51,12.84,12.59,12.59,0,0,1,11.3,1.35c6.19,4.4,6.75,14.22,1.26,21.94s-15,10.43-21.13,6a11,11,0,0,1-2.23-2.13c-8.46,27.43-35.73,44.45-63.16,38.49C1795.6,849.36,1778.42,832.08,1775,808.18Z"/>
              <path class="cls-19" d="M1838.29,782a5.09,5.09,0,1,0,4.63-3.17A5.1,5.1,0,0,0,1838.29,782Z"/>
              <path class="cls-19" d="M1795,775.54a5.09,5.09,0,1,0,4.63-3.17A5.1,5.1,0,0,0,1795,775.54Z"/>
              <path class="cls-18" d="M1831.54,817.64a33.13,33.13,0,0,1-8.18,2.81,26,26,0,0,1-8.52.33,22.14,22.14,0,0,1-8-2.8,30.87,30.87,0,0,1-6.66-5.5,23.68,23.68,0,0,0,6.25,6.17,20,20,0,0,0,8.28,3.13,23,23,0,0,0,8.83-.57A25.14,25.14,0,0,0,1831.54,817.64Z"/>
              <path class="cls-17" d="M1834.17,771.7a48.26,48.26,0,0,1,7.61-.82,25.49,25.49,0,0,1,7.08.84,23.35,23.35,0,0,1,6.5,2.83,75.09,75.09,0,0,1,6.24,4.47,16.9,16.9,0,0,0-4.47-6.77,16.53,16.53,0,0,0-7.33-4.09,17.36,17.36,0,0,0-8.38-.15A16.06,16.06,0,0,0,1834.17,771.7Z"/>
              <path class="cls-17" d="M1813.93,768.37a16,16,0,0,0-5.68-5.81,17.29,17.29,0,0,0-8-2.56,16.49,16.49,0,0,0-8.25,1.53,16.77,16.77,0,0,0-6.4,5c1.82-.48,4.1-1.62,7.33-2.25a23.62,23.62,0,0,1,7.07-.59,24.89,24.89,0,0,1,7,1.48A46.68,46.68,0,0,1,1813.93,768.37Z"/>
              <path class="cls-18" d="M1822.76,774.79a71.68,71.68,0,0,0-6.64,7.19,69.11,69.11,0,0,0-5.71,8,19.1,19.1,0,0,0-2.5,5.89c-.17,1.07-.08,2.11,1.7,3.87a23.66,23.66,0,0,0,3.85,3.18,32.18,32.18,0,0,0,4.26,2.45,54.15,54.15,0,0,1-6.93-6.66,9.6,9.6,0,0,1-1.12-1.74,3.85,3.85,0,0,1,.35-1.82,26.25,26.25,0,0,1,2.11-4.16c1.62-2.74,3.44-5.4,5.24-8.09S1821,777.55,1822.76,774.79Z"/>
              <path class="cls-17" d="M1782.65,713.74s-17.18-3.31,4-13.68,73-16.41,100.12,6.82c0,0,9.12-11.7,17.31-6.56s-8.53,10.82-8.53,10.82,11.45,2.2,13.65,8.56c1.64,4.7-5.36,3.31-9.13,2.26,6.22,2.57,24.52,19.85.76,67-4.21-2-31.4-40.75-31.4-40.75s-54.66,18-44.69,3.06c0,0-63.71,16-48.27-12.85C1776.44,738.46,1753,734.92,1782.65,713.74Z"/>
              <path class="cls-17" d="M1900.8,789s-4.12-3.15-10.42-.81-10.31,16.47-10.31,16.47-20.63,16.89-10.57-56.73c9.89-72.33,23.57,12,23.57,12Z"/>
            </g>
            <g>
              <path class="cls-8" d="M1759.52,560.4l-8.93-.88a9.39,9.39,0,0,1,5.43-1.08l223.51,22c11.7,1.15,20.35,10.48,19.33,20.85l-1.17,11.92c-1,10.37-11.33,17.84-23,16.69l-221-21.8Z"/>
              <path class="cls-6" d="M1978.94,611.35l1.17-11.92c1-10.37-7.63-19.7-19.33-20.85l4.8.47c11.7,1.15,20.35,10.48,19.33,20.85l-1.17,11.92c-1,10.37-11.33,17.84-23,16.69L1956,628C1967.65,629.16,1977.92,621.7,1978.94,611.35Z"/>
              <path class="cls-6" d="M1926.59,606.2l1.18-11.92c1-10.37-7.64-19.7-19.33-20.85l4.8.47c11.69,1.15,20.35,10.48,19.33,20.85l-1.18,11.92c-1,10.37-11.32,17.84-23,16.69l-4.73-.47C1915.31,624,1925.58,616.55,1926.59,606.2Z"/>
              <path class="cls-7" d="M1886.56,571.32c11.18,1.1,19.46,10,18.48,19.94l-1.32,13.47c-1,9.92-10.83,17.06-22,16L1742.57,607l.29-3,.58,0,35.66.51,9.6-24.16s-12.45-15.09-13.32-15.54-27.68-4.16-27.68-4.16l-.58-.06.3-3Z"/>
              <path class="cls-5" d="M1754,583.12c1.43-14.53-6.36-22.41-6.36-22.41l135.74,13.34c10.28,1,17.88,9.21,17,18.32l-1,10.37c-.89,9.11-9.95,15.67-20.22,14.66l-135.74-13.35S1752.23,601.43,1754,583.12Z"/>
              <path class="cls-11" d="M1900.39,592.37l-1,10.37a14.53,14.53,0,0,1-.93,3.9c-3.6-10.38-11.44-20.8-27.84-25.52-38.29-11-122.93-20.41-122.93-20.41l135.74,13.34C1893.69,575.06,1901.29,583.26,1900.39,592.37Z"/>
            </g>
          </g>
          <g>
            <path class="cls-4" d="M1488.46,903.6l-9.22,20.56a3.37,3.37,0,0,0,1.69,4.45l48.15,21.58a3.82,3.82,0,0,0,4.75-5.58l-18.63-29S1500.47,918.28,1488.46,903.6Z"/>
            <path class="cls-4" d="M1427.29,903.6l-9.22,20.56a3.37,3.37,0,0,0,1.7,4.45l48.14,21.58a3.82,3.82,0,0,0,4.75-5.58l-18.63-29S1439.3,918.28,1427.29,903.6Z"/>
            <path class="cls-17" d="M1323.3,336.75l-5.12,32.11-10.81-42.81s15.16-7.35,15.82-4.68S1323.3,336.75,1323.3,336.75Z"/>
            <polygon class="cls-15" points="1237.26 405.86 1232.58 461.36 1281.56 459.02 1275.91 409.87 1237.26 405.86"/>
            <path class="cls-18" d="M1278.6,433.25l-2.69-23.38-38.65-4-1.62,19.22C1243.32,432.74,1257.14,440.68,1278.6,433.25Z"/>
            <g>
              <path class="cls-18" d="M1308.63,368.46c-2.94,6.09-1.38,12.94,3.49,15.29s11.21-.67,14.16-6.76,1.38-12.94-3.49-15.29S1311.58,362.37,1308.63,368.46Z"/>
              <path class="cls-15" d="M1315.74,372.92c.26-1.59.6-3.16,1-4.72a52.34,52.34,0,1,0-103.11-15.6,11.27,11.27,0,0,0-10.11-1.44c-6.38,2.37-9.14,10.76-6.17,18.73s10.55,12.5,16.92,10.12a9.7,9.7,0,0,0,2.43-1.33c1,25.74,20.69,46.81,45.85,48a47,47,0,0,0,32.63-11.23C1307.24,406.56,1313.35,387.72,1315.74,372.92Z"/>
              <path class="cls-18" d="M1277.59,356.14c.1,3,.12,5.92.27,8.79s.5,5.8,1.62,7.78c1.15,1.59,2,2.62,2.08,4.58a6.21,6.21,0,0,1-2.29,4.85,10.07,10.07,0,0,1-9,1.75c2.92-.51,5.73-1.52,7.36-3.43a3.94,3.94,0,0,0,1.08-3c-.12-1.1-.46-1.32-1.79-3.16a11.5,11.5,0,0,1-1.41-4.79,23.65,23.65,0,0,1,0-4.61A31.19,31.19,0,0,1,1277.59,356.14Z"/>
              <path class="cls-19" d="M1260.2,359.37a4.57,4.57,0,1,1-3.61-4A4.57,4.57,0,0,1,1260.2,359.37Z"/>
              <path class="cls-19" d="M1299.27,363.79a4.57,4.57,0,1,1-3.6-4A4.57,4.57,0,0,1,1299.27,363.79Z"/>
              <path class="cls-18" d="M1252.56,391a31.61,31.61,0,0,0,3.78,2.87,32.38,32.38,0,0,0,4.07,2.36,28.19,28.19,0,0,0,8.86,2.72,24,24,0,0,0,9.2-.68,33.88,33.88,0,0,0,8.57-3.89,25.42,25.42,0,0,1-8.3,4.77,21.73,21.73,0,0,1-9.62,1,24.9,24.9,0,0,1-9.14-3.1A27.3,27.3,0,0,1,1252.56,391Z"/>
              <path class="cls-17" d="M1266,349.79a47.44,47.44,0,0,0-6.68-1.61,23.38,23.38,0,0,0-6.35-.14,21.72,21.72,0,0,0-6.1,1.62c-1.52.48-5.21,2.65-6.17,3.07a15.33,15.33,0,0,1,11.87-8.26,15.43,15.43,0,0,1,7.51,1A14,14,0,0,1,1266,349.79Z"/>
              <path class="cls-17" d="M1286.09,352.05a14,14,0,0,1,6.64-3.08,15.31,15.31,0,0,1,7.56.47,15.35,15.35,0,0,1,10,10.41c-.87-.61-4.06-3.45-5.46-4.21a21.44,21.44,0,0,0-5.67-2.77,23,23,0,0,0-6.25-1.09A47.54,47.54,0,0,0,1286.09,352.05Z"/>
            </g>
            <path class="cls-23" d="M1264.23,666.23S1254,735.52,1321,747.59s150.24,8.47,150.24,8.47l11.59,159.16,35,1.79s90-221.15-34.57-255.72l-111.94.55-46.1-3.29S1278.5,647,1278,649.22,1265.33,667.33,1264.23,666.23Z"/>
            <path class="cls-24" d="M1202.71,666.59s-10.22,69.29,56.73,81.37,150.25,8.47,150.25,8.47l11.59,159.16,35,1.78s90-221.14-34.57-255.71l-112,.54-46.09-3.29s-46.65-11.52-47.19-9.33S1203.8,667.69,1202.71,666.59Z"/>
            <path class="cls-7" d="M1287,439.23s46.1,5.85,57.8,15.37,68.05,149.25,68.05,149.25l-46.83,54.88-99.5.73s-74.63,40.24-121.46,2.2-22.68-170.48,4.39-199,75.36-27.8,75.36-27.8S1268.74,465.57,1287,439.23Z"/>
            <path class="cls-22" d="M1197.77,508.74a191.32,191.32,0,0,1,3.37,23.1c.4,3.88.57,7.77.8,11.66s.2,7.8.15,11.71a153.76,153.76,0,0,1-1.92,23.35c-1.31,7.69-3.21,15.41-6.79,22.37a114.88,114.88,0,0,0,4.46-22.69c.85-7.65,1.14-15.36,1.24-23.08s0-15.44-.27-23.17S1198.18,516.51,1197.77,508.74Z"/>
            <path class="cls-22" d="M1335.69,503.62c2.1,11.33,4.33,22.62,6.6,33.9s4.71,22.5,7.44,33.65,5.69,22.25,9.31,33.11a159.94,159.94,0,0,0,6.22,16A61.61,61.61,0,0,0,1374.1,635c-4.24-4-7.35-9-10.16-14a130.68,130.68,0,0,1-7.11-15.85c-2.07-5.41-3.85-10.92-5.53-16.45s-3.11-11.14-4.5-16.75-2.59-11.25-3.72-16.91-2.18-11.33-3.09-17C1338.11,526.56,1336.64,515.11,1335.69,503.62Z"/>
            <g>
              <path class="cls-25" d="M1435.5,528.9c-8.52-13.25-78.27-35.75-78.27-35.75v22.43l71,24.82Z"/>
              <polygon class="cls-22" points="1430.48 528 1349.48 490.65 1349.48 505.15 1428.48 533.65 1430.48 528"/>
              <polygon class="cls-25" points="1425.98 528 1340.48 495.65 1340.48 520.65 1425.12 533.65 1425.98 528"/>
              <path class="cls-22" d="M1435.5,525.44s16.48-38.54,23.23-46.54c0,25.36-10.25,57.25-10.25,57.25Z"/>
              <polygon class="cls-25" points="1442.69 527.15 1462.68 476.65 1462.68 500.71 1448.95 533.65 1442.69 527.15"/>
              <polygon class="cls-22" points="1448.95 528 1470.73 478.9 1470.73 496.4 1448.95 528"/>
              <polygon class="cls-26" points="1448.95 679.29 1476.41 631.99 1476.41 480.7 1448.95 528 1448.95 679.29"/>
              <polygon class="cls-4" points="1322.43 656.43 1419.66 679.29 1419.66 528 1322.43 505.14 1322.43 656.43"/>
              <path class="cls-27" d="M1419.66,528c8.57-4.1,26.51-2.65,29.29,0C1447.48,536.65,1421.84,538.35,1419.66,528Z"/>
              <path class="cls-28" d="M1419.66,679.29c0,3.7,29.42,3.7,29.42,0V528c-3,4.4-26.1,4.27-29.42,0Z"/>
            </g>
            <path class="cls-15" d="M1358.85,627.1c-.29-2.31-17.88-4.9-24.34-5.24-4.9-.25-37.36-1.33-48.41-1.83l.82,2.84-.17,12.54-1.81,8.31c9.68.61,33.37,1.54,38.3,2.51,6.59,1.31,18,6.27,18,6.27s4.75-1.08-1.29-3.68a29.15,29.15,0,0,1-9.69-7c-.83-.92.07-2.58.67-2.42,16.45,4.31,18.14,5,18.14,5s19.32-.1.11-4.45c-11.52-2.6-15.65-4.11-16.67-5.41-.44-.55.34-2.42,1-2.46,10-.62,27.89,2.92,23,.6-4-1.89-16.6-4-21.5-4.75-.3,0-.78-1.87.55-2C1345.1,625.22,1359.12,629.25,1358.85,627.1Z"/>
            <path class="cls-22" d="M1186.52,599c4,1,8,2.11,12.1,3s8.13,1.67,12.18,2.52c8.16,1.49,16.34,2.78,24.55,3.93s16.44,2.07,24.69,2.87,16.57,1.51,24.71,2l1.09.06.24.95a68.3,68.3,0,0,1,2,16.49,55,55,0,0,1-.72,8.3,38.61,38.61,0,0,1-2.41,8l-.1.22-.17.12-9,6.06q-4.52,3-9.08,6,4.25-3.4,8.56-6.71l8.62-6.65-.28.34a36.28,36.28,0,0,0,1.9-7.7,52.81,52.81,0,0,0,.38-8,73.32,73.32,0,0,0-.72-8,66.1,66.1,0,0,0-1.6-7.8l1.34,1c-4.3-.11-8.37-.39-12.56-.69s-8.3-.64-12.45-1.07c-8.29-.86-16.56-1.89-24.78-3.21s-16.42-2.93-24.53-4.85c-4-1-8.08-2-12.06-3.28S1190.43,600.4,1186.52,599Z"/>
            <path class="cls-17" d="M1324.28,306.38s15.37.49-.75-12.5-59.43-28.23-87.18-13.58c0,0-5.55-11.8-13.57-9s5.22,10.93,5.22,10.93-10.25-.33-13.38,4.7c-2.31,3.71,4,3.88,7.4,3.71-5.84,1-28.19,15.11-17,60.19,4-.87,26.71-33.83,26.71-33.83s52,28.88,46.84,5.91c0,0,53.85,33.61,46.21,5.85C1324.81,328.78,1345.63,330.31,1324.28,306.38Z"/>
            <path class="cls-17" d="M1205,351.12s4.31-1.51,8.94,2.17,4.11,16.58,4.11,16.58,22.1,14.24,19.77-46c-2.48-64.14-18.43,5.14-18.43,5.14Z"/>
          </g>
          <g>
            <path class="cls-17" d="M965.19,1553.54l9.21,20.56a3.36,3.36,0,0,1-1.69,4.45l-48.15,21.58a3.82,3.82,0,0,1-4.75-5.58l18.63-29S953.17,1568.22,965.19,1553.54Z"/>
            <path class="cls-17" d="M1027.57,1551.09l9.22,20.56a3.38,3.38,0,0,1-1.7,4.46L987,1597.69a3.82,3.82,0,0,1-4.75-5.58l18.63-29S1015.56,1565.78,1027.57,1551.09Z"/>
            <path class="cls-16" d="M1083.84,885.3s-52.46-8.84-70.07,49.78l21.73,32.52s45.57-17.51,45.75-19.22S1083.84,885.3,1083.84,885.3Z"/>
            <path class="cls-16" d="M1168.29,911.71s15.3,23,23.11,32.14c19.63,23,22.16,15.76,34.37,35.5,13.17,21.31-.16,34.66-7.73,40.8s5.1,28.86-9,41.6c-18.48,16.67-35.57,1-48.28,10.29s-15.49,23.18-45.62,20.57-29.84-101.14-29.84-101.14,24.66-52.23,25.64-52.66S1168.29,911.71,1168.29,911.71Z"/>
            <path class="cls-16" d="M1013.77,935.08s-1.8,18.07-7.78,28.49c-15,26.2-23.14,17.61-31.47,39.28-9,23.39,6.57,34,15.16,38.66s.34,29.31,16.57,39.2c21.25,13,35.13-5.66,49.36,1.16s19.52,19.91,48.64,11.75,10.57-104.91,10.57-104.91-33.92-46.75-35-47S1013.77,935.08,1013.77,935.08Z"/>
            <path class="cls-15" d="M1089.9,1051.74s50.28-9.25,73.41-8.47-14,60.91-14,60.91l-37.76.84s-23.16-25.86-21.63-28.87-.08-22.73-.08-22.73Z"/>
            <g>
              <path class="cls-15" d="M1134.74,1003.76,1148,1044s-11.55,23.87-46.91,13.58c0,0,4-8.34-1.38-25.51C1094.18,1014.54,1134.74,1003.76,1134.74,1003.76Z"/>
              <path class="cls-20" d="M1134.74,1003.76l6.22,18.81c-3.71,13.74-15.74,23.1-38.44,26a54.35,54.35,0,0,0-2.81-16.49C1094.18,1014.54,1134.74,1003.76,1134.74,1003.76Z"/>
              <g>
                <path class="cls-18" d="M1053.83,974.28c2.87,6.54,1,13.7-4.28,16s-11.79-1.15-14.67-7.68-1-13.7,4.28-16S1051,967.74,1053.83,974.28Z"/>
                <path class="cls-15" d="M1052.36,1004a102,102,0,0,1-6.2-25.26c-.21-1.68-.52-3.35-.86-5a55.24,55.24,0,1,1,109.35-12.46,11.91,11.91,0,0,1,10.72-1.12c6.63,2.75,9.22,11.7,5.78,20s-11.61,12.77-18.23,10a10.13,10.13,0,0,1-2.52-1.5c-2,27.11-23.63,48.57-50.21,48.83C1080.25,1037.66,1060.61,1025.56,1052.36,1004Z"/>
                <path class="cls-18" d="M1087,962.49a33.73,33.73,0,0,1,1.77,9.31,25.51,25.51,0,0,1-.17,4.85,12.27,12.27,0,0,1-1.67,5c-1.21,1.55-1.84,2.07-2,3.31a4.23,4.23,0,0,0,1.06,3.26c1.67,2.09,4.61,3.24,7.68,3.86a10.7,10.7,0,0,1-9.38-2.24,6.42,6.42,0,0,1-2.19-5.15c.15-2.14,1.11-3.09,2.35-4.71a11.5,11.5,0,0,0,1.37-3.77,36.74,36.74,0,0,0,.63-4.42C1086.74,968.73,1086.86,965.64,1087,962.49Z"/>
                <path class="cls-19" d="M1105.25,966.58a4.82,4.82,0,1,0,4-4A4.83,4.83,0,0,0,1105.25,966.58Z"/>
                <path class="cls-19" d="M1063.88,969.72a4.82,4.82,0,1,0,3.95-4.05A4.81,4.81,0,0,0,1063.88,969.72Z"/>
                <path class="cls-29" d="M1106.05,1004a16.23,16.23,0,0,0-13.39,1.78s-7-4.39-12.54-.19c0,0,2.57,10.44,14.09,9.74S1106.05,1004,1106.05,1004Z"/>
                <path class="cls-18" d="M1112.08,1000.26a39.42,39.42,0,0,1-8.47,5.2,29.64,29.64,0,0,1-9.46,2.53,25.24,25.24,0,0,1-9.68-1.07,36,36,0,0,1-8.88-4.43,30.63,30.63,0,0,0,4,3.07,27.64,27.64,0,0,0,4.55,2.28,23.57,23.57,0,0,0,5,1.28,25.23,25.23,0,0,0,5.14.13,26.16,26.16,0,0,0,9.77-2.91A28.82,28.82,0,0,0,1112.08,1000.26Z"/>
                <path class="cls-16" d="M1099.55,956.24a49.19,49.19,0,0,1,7.11-1.43,24.19,24.19,0,0,1,6.7.1,22.6,22.6,0,0,1,6.37,1.94c1.58.56,5.4,3,6.39,3.47a16.24,16.24,0,0,0-12.2-9.17,16.36,16.36,0,0,0-8,.76A14.9,14.9,0,0,0,1099.55,956.24Z"/>
                <path class="cls-16" d="M1078.24,957.85a14.77,14.77,0,0,0-6.89-3.51,16.16,16.16,0,0,0-8,.21,15.62,15.62,0,0,0-6.93,4,15.45,15.45,0,0,0-4.06,6.57c.93-.61,4.42-3.49,5.92-4.23a22.54,22.54,0,0,1,6.08-2.7,24.59,24.59,0,0,1,6.64-.92A50,50,0,0,1,1078.24,957.85Z"/>
              </g>
            </g>
            <path class="cls-15" d="M1177.37,1297.73s14.83,69.79-52.46,86.36-152.22,18.25-152.22,18.25l-1.57,162.57L935.7,1569S830,1349.9,954.44,1306.76l113.85-6.63,46.65-6.31s46.69-14.7,47.39-12.51S1176.32,1298.91,1177.37,1297.73Z"/>
            <path class="cls-15" d="M1239.94,1294.15s14.83,69.79-52.46,86.36-152.21,18.26-152.21,18.26l-1.57,162.56-35.42,4.06S892.59,1346.32,1017,1303.18l113.85-6.63,46.65-6.3s46.68-14.71,47.38-12.52S1238.9,1295.34,1239.94,1294.15Z"/>
            <path class="cls-6" d="M998,1285.92c-56.74.87-108.49,33.45-126.9,96.72s-60.41,128.55-56.41,127.92c89,49.82,117-.23,178.49,14.57s83.31,8.1,83.31,8.1c-17.8-89.31-41.22-134.46-41.22-134.46,5.17.92,156.13,3.15,193.42-38.18,10.46-11.6,18.47-26.17,16.87-61.8C1242.58,1232.47,1014.46,1285.67,998,1285.92Z"/>
            <path class="cls-5" d="M1014.92,1403.43c1.94-.35,3.88-.68,5.79-1.13s3.81-1,5.68-1.53c.94-.29,1.88-.61,2.81-1a20.55,20.55,0,0,1-2.85-.82,23.85,23.85,0,0,1-5.2-2.66,29.39,29.39,0,0,1-4.35-3.82,29.84,29.84,0,0,1-3.41-4.61l1.93,2.09c.69.65,1.33,1.33,2,1.93a28.68,28.68,0,0,0,4.48,3.32,27.33,27.33,0,0,0,5,2.35,19.19,19.19,0,0,0,5.29,1.06l3.15.12-2.79,1.29a36.74,36.74,0,0,1-5.72,2,56.4,56.4,0,0,1-5.85,1.25c-2,.32-3.94.6-5.92.74s-4,.25-6,.24C1011,1404,1013,1403.78,1014.92,1403.43Z"/>
            <path class="cls-15" d="M1032.75,1149.72s-4.58,114-17.41,131.89l70.53-16V1141.47Z"/>
            <path class="cls-6" d="M1061.24,1165.29s11.37,28.7,13.15,43.94c4.44,37.86-.38,64.57-8.21,86.12-11,30.22,74.07,18.72,76.11,18.77,89.89,2.14,89-1.53,89-1.53l14.35-11.52c-2-36.93-7.11-68.86-6.31-101.8l.82-34-4.12-34.35-127.24-10Z"/>
            <g>
              <path class="cls-25" d="M1017.69,1190.64c7.77-12.09,71.4-32.61,71.4-32.61v20.46l-64.77,22.64Z"/>
              <path class="cls-25" d="M1017.69,1190.64c7.77-12.09,71.4-32.61,71.4-32.61v20.46l-64.77,22.64Z"/>
              <polygon class="cls-22" points="1022.26 1189.82 1096.17 1155.74 1096.17 1168.97 1024.09 1194.98 1022.26 1189.82"/>
              <polygon class="cls-25" points="1026.37 1189.82 1104.38 1160.31 1104.38 1183.12 1027.16 1194.98 1026.37 1189.82"/>
              <path class="cls-22" d="M1017.69,1187.49s-15-35.17-21.2-42.47c0,23.14,9.35,52.24,9.35,52.24Z"/>
              <polygon class="cls-25" points="1011.12 1189.05 992.89 1142.97 992.89 1164.92 1005.41 1194.98 1011.12 1189.05"/>
              <polygon class="cls-22" points="1005.41 1189.82 985.54 1145.02 985.54 1160.99 1005.41 1189.82"/>
              <polygon class="cls-30" points="1005.41 1327.85 987.18 1285.89 987.18 1147.85 1005.41 1189.82 1005.41 1327.85"/>
              <polygon class="cls-7" points="1120.85 1307 1032.13 1327.85 1032.13 1189.82 1120.85 1168.97 1120.85 1307"/>
              <path class="cls-27" d="M1032.13,1189.82c-7.81-3.74-24.18-2.42-26.72,0C1006.75,1197.71,1030.14,1199.26,1032.13,1189.82Z"/>
              <path class="cls-31" d="M1032.13,1327.85c0,3.38-26.84,3.38-26.84,0v-138c2.72,4,23.82,3.9,26.84,0Z"/>
            </g>
            <path class="cls-15" d="M1266.84,1136l-60.38,28s-4.7,77.25-7.62,80.67c-5.28,6.18-58.82,23.91-87,29.09a26.28,26.28,0,0,1-13.56-1.06c-14-4.94-38.74-13.83-42.65-15.16-6.13-2.07-23.43-6.16-24.56-4.11-1,1.89,13.47,3.33,22,7.57,1.2.6.07,2.12-.22,2-4.85-1.09-17.32-3.81-21.74-3.53-5.41.35,12.54,3.67,21.58,7.93.64.3.67,2.33.06,2.68-1.43.82-5.82.7-17.49-1.13-19.46-3.06-1.54,4.18-1.54,4.18s1.84,0,18.71,2c.62.08.84,2-.27,2.5a29.1,29.1,0,0,1-11.57,2.88c-6.57.19-2.56,3-2.56,3s12.46-.4,19.06.82c4.94.91,27.3,8.79,36.53,11.8l1.14-1.42c12.8,3,130.76,11.6,145.09-23.4C1266.18,1206.91,1266.84,1136,1266.84,1136Z"/>
            <path class="cls-6" d="M1089.9,1051.74s34.18,39.91,73.41-8.47c0,0,42.86-3.49,74.45,19s50.52,72.84,50.52,72.84-45.35,30.23-81.91,30.23l-85.73-30.7-59.4,30.7s-27.58-1.83-50.93-13.74C1010.31,1151.55,1014.33,1071.44,1089.9,1051.74Z"/>
            <path class="cls-17" d="M1196,1119.82c1.47,5,2.8,9.93,4.12,14.93,2.46,9.8,4.73,19.14,6.39,29.17a53.9,53.9,0,0,0,9.65-.75c16.5-2.94,27.34-7.56,42-13.57,22-10,19-9.06,30.13-14.54a288.6,288.6,0,0,1-29.22,16.53c-12.87,6-25.17,11.48-42.49,14.53-7.57,1-9.75.81-12.62.49-1.12-7.36-2.4-14.89-5.91-31.38l-3.28-15.11-3.36-15.1C1193,1109.92,1194.48,1114.87,1196,1119.82Z"/>
            <path class="cls-17" d="M1060.07,1129.1a84.48,84.48,0,0,0-1.45,18.3c.11,3,2.29,11.25,4.82,19.66l-1.41.53c-2.92-8.46-5.43-16.92-5.76-20a66.24,66.24,0,0,1,.83-19,99.46,99.46,0,0,1,5.17-18.22,95.17,95.17,0,0,1,8.31-16.92c-2.24,5.86-4.28,11.74-6.1,17.68A154.69,154.69,0,0,0,1060.07,1129.1Z"/>
            <path class="cls-16" d="M1154.65,961.23s-58.72-14.16-86.77-54.06c0,0-.48-36.33,53.42-28.09C1173.67,887.09,1185.93,938.06,1154.65,961.23Z"/>
          </g>
        </g>
      </g>
    </g>
  </g>
</svg>
